<svg xmlns="http://www.w3.org/2000/svg" width="68" height="68" viewBox="0 0 68 68">
    <path fill="#009CDE" fill-rule="evenodd" d="M11.037 66.71c0 .783-.67 1.418-1.5 1.418s-1.5-.635-1.5-1.417V1.544c0-.782.67-1.416 1.5-1.416s1.5.634 1.5 1.416v65.167zM17 39.409v-33l38.037 16.5L17 39.408zM15.97 2.942a1.386 1.386 0 0 0-1.331.116 1.436 1.436 0 0 0-.634 1.194v37.143c0 .482.239.93.634 1.195a1.39 1.39 0 0 0 1.33.115l42.35-18.561c.516-.226.848-.742.848-1.31 0-.57-.332-1.085-.848-1.31L15.969 2.942z"/>
</svg>
