<svg xmlns="http://www.w3.org/2000/svg" xmlns:xlink="http://www.w3.org/1999/xlink" width="68" height="68" viewBox="0 0 68 68">
    <defs>
        <path id="a" d="M0 45.32h64.905V0H0z"/>
    </defs>
    <g fill="none" fill-rule="evenodd" transform="translate(1.417 9.917)">
        <mask id="b" fill="#fff">
            <use xlink:href="#a"/>
        </mask>
        <path fill="#169BD7" d="M44.251 33.584a1.416 1.416 0 1 0 2.026-1.98L35.12 20.189c-.532-.544-1.495-.544-2.026 0L21.938 31.603a1.415 1.415 0 0 0 1.012 2.407c.369 0 .774-.143 1.05-.426l4.334-4.395v14.71a1.416 1.416 0 1 0 2.833 0V26.293l2.977-3.084 2.69 2.79v17.906a1.416 1.416 0 1 0 2.833 0v-15.01l4.584 4.69zm20.654-3.378c0 5.991-4.743 10.865-10.571 10.865H43.917a1.416 1.416 0 1 1 0-2.834h10.417c4.267 0 7.738-3.602 7.738-8.03 0-4.018-2.875-7.45-6.688-7.982a1.416 1.416 0 0 1-1.222-1.431l.015-.25c.005-9.813-7.707-17.71-17.185-17.71-6.23 0-11.99 3.477-15.029 9.075a1.418 1.418 0 0 1-1.718.66 7.543 7.543 0 0 0-2.528-.442c-4.268 0-7.739 3.565-7.739 7.947 0 .262.014.521.038.778a1.419 1.419 0 0 1-1.1 1.513c-3.525.788-6.082 4.086-6.082 7.843 0 4.427 3.47 8.03 7.738 8.03h13.512a1.416 1.416 0 1 1 0 2.833H10.572C4.742 41.07 0 36.197 0 30.208c0-4.657 2.943-8.8 7.146-10.28.075-5.878 4.788-10.635 10.571-10.635.782 0 1.563.091 2.33.27C23.708 3.636 30.1 0 36.993 0c10.788 0 19.611 8.754 20.01 19.668 4.582 1.226 7.903 5.55 7.903 10.538z" mask="url(#b)"/>
    </g>
</svg>
