<svg xmlns="http://www.w3.org/2000/svg" width="68" height="68" viewBox="0 0 68 68">
    <path fill="#009CDE" fill-rule="evenodd" d="M6.833 28.083c0-11.717 9.533-21.25 21.25-21.25 11.718 0 21.25 9.533 21.25 21.25 0 11.718-9.532 21.25-21.25 21.25-11.717 0-21.25-9.532-21.25-21.25m39.225 15.973c3.787-4.255 6.109-9.841 6.109-15.973C52.167 14.803 41.363 4 28.083 4S4 14.803 4 28.083c0 13.28 10.803 24.084 24.083 24.084 6.13 0 11.716-2.322 15.972-6.108l17.527 17.527c.276.277.639.414 1.001.414a1.417 1.417 0 0 0 1.002-2.418L46.058 44.056z"/>
</svg>
