<svg xmlns="http://www.w3.org/2000/svg" width="68" height="68" viewBox="0 0 68 68">
    <path fill="#009CDE" fill-rule="evenodd" d="M32 52h4v-4h-4v4zm4.667-6h-5.334c-.737 0-1.333.596-1.333 1.333v5.334c0 .737.596 1.333 1.333 1.333h5.334c.737 0 1.333-.596 1.333-1.333v-5.334c0-.737-.596-1.333-1.333-1.333zM19 52h4v-4h-4v4zm4.667-6h-5.334c-.737 0-1.333.596-1.333 1.333v5.334c0 .737.596 1.333 1.333 1.333h5.334c.737 0 1.333-.596 1.333-1.333v-5.334c0-.737-.596-1.333-1.333-1.333zM45 39h4v-4h-4v4zm4.667-6h-5.334c-.737 0-1.333.596-1.333 1.333v5.334c0 .737.596 1.333 1.333 1.333h5.334c.737 0 1.333-.596 1.333-1.333v-5.334c0-.737-.596-1.333-1.333-1.333zM32 39h4v-4h-4v4zm4.667-6h-5.334c-.737 0-1.333.596-1.333 1.333v5.334c0 .737.596 1.333 1.333 1.333h5.334c.737 0 1.333-.596 1.333-1.333v-5.334c0-.737-.596-1.333-1.333-1.333zM19 39h4v-4h-4v4zm4.667-6h-5.334c-.737 0-1.333.596-1.333 1.333v5.334c0 .737.596 1.333 1.333 1.333h5.334c.737 0 1.333-.596 1.333-1.333v-5.334c0-.737-.596-1.333-1.333-1.333zM45 26h4v-4h-4v4zm4.667-6h-5.334c-.737 0-1.333.596-1.333 1.333v5.334c0 .737.596 1.333 1.333 1.333h5.334c.737 0 1.333-.596 1.333-1.333v-5.334c0-.737-.596-1.333-1.333-1.333zM32 26h4v-4h-4v4zm4.667-6h-5.334c-.737 0-1.333.596-1.333 1.333v5.334c0 .737.596 1.333 1.333 1.333h5.334c.737 0 1.333-.596 1.333-1.333v-5.334c0-.737-.596-1.333-1.333-1.333zM19 26h4v-4h-4v4zm4.667-6h-5.334c-.737 0-1.333.596-1.333 1.333v5.334c0 .737.596 1.333 1.333 1.333h5.334c.737 0 1.333-.596 1.333-1.333v-5.334c0-.737-.596-1.333-1.333-1.333zM58 58.563c0 .793-.632 1.437-1.412 1.437H11.412c-.78 0-1.412-.644-1.412-1.438V15.438c0-.794.632-1.438 1.412-1.438h45.176c.78 0 1.412.644 1.412 1.438v43.124zm-6.022-47.457V6.45c0-.802-.635-1.45-1.42-1.45-.787 0-1.422.648-1.422 1.45v4.656h-5.189V6.45c0-.802-.635-1.45-1.42-1.45-.787 0-1.422.648-1.422 1.45v4.656h-5.684V6.45C35.421 5.648 34.786 5 34 5s-1.421.648-1.421 1.45v4.656h-5.684V6.45c0-.802-.635-1.45-1.421-1.45s-1.421.648-1.421 1.45v4.656H18.81V6.45c0-.802-.636-1.45-1.421-1.45-.786 0-1.421.648-1.421 1.45v4.656h-4.706C8.913 11.106 7 12.752 7 15.15v43.5C7 61.048 8.913 63 11.263 63h45.474C59.087 63 61 61.048 61 58.65v-43.5c0-2.398-1.913-4.044-4.263-4.044h-4.759z"/>
</svg>
