<svg xmlns="http://www.w3.org/2000/svg" width="68" height="68" viewBox="0 0 68 68">
    <path fill="#009CDE" fill-rule="evenodd" d="M65.167 41.076v7.045c0 2.49-1.554 3.87-3.779 3.87H7.555c-2.47 0-4.722-1.658-4.722-3.87v-7.045c0-.78-.633-1.41-1.416-1.41-.784 0-1.417.63-1.417 1.41v7.045c0 3.753 3.53 6.918 7.555 6.918h53.833c3.769 0 6.612-2.9 6.612-6.918v-7.045c0-.78-.633-1.41-1.417-1.41-.783 0-1.416.63-1.416 1.41zm-46.675-17.17l-.075-3.364c0-2.301 2.39-3.542 4.638-3.542h5.589c2.246 0 3.94 1.828 3.94 4.25l.075 2.657a1.415 1.415 0 1 0 2.833 0l-.075-3.365c0-2.301 2.432-3.542 4.721-3.542h5.667c1.411 0 3.778.46 3.778 3.542l.076 3.365a1.415 1.415 0 1 0 2.833 0l-.075-3.365c0-3.872-2.596-6.539-6.612-6.539h-5.667c-2.336 0-4.762 1.077-6.216 2.811-1.231-1.61-3.11-2.81-5.278-2.81h-5.59c-3.62 0-7.47 2.397-7.47 6.538l.075 3.365a1.415 1.415 0 1 0 2.833 0zM7.083 44.75v-9.208c0-4.141 3.863-6.375 7.495-6.375h5.606c2.242 0 4.18 1.096 5.41 2.795 1.38-1.686 3.6-2.795 6.12-2.795H37.4c2.349 0 4.294 1.093 5.46 2.851a7.747 7.747 0 0 1 5.992-2.851h5.764c3.99 0 6.468 2.443 6.468 6.375v9.208c0 .783-.635 1.417-1.42 1.417a1.418 1.418 0 0 1-1.422-1.417v-9.208c0-2.35-1.219-3.542-3.626-3.542H48.85c-2.505 0-4.702 1.986-4.702 4.25 0 .2-.043.388-.118.561v7.939c0 .783-.636 1.417-1.421 1.417a1.418 1.418 0 0 1-1.421-1.417v-8.677c0-2.437-1.524-4.073-3.79-4.073h-5.685c-2.278 0-4.736 1.49-4.736 3.896v8.854c0 .783-.635 1.417-1.421 1.417a1.418 1.418 0 0 1-1.421-1.417v-8.5c0-2.422-1.698-4.25-3.952-4.25h-5.606c-2.255 0-4.653 1.241-4.653 3.542v9.208c0 .783-.635 1.417-1.42 1.417a1.418 1.418 0 0 1-1.422-1.417"/>
</svg>
