<svg xmlns="http://www.w3.org/2000/svg" xmlns:xlink="http://www.w3.org/1999/xlink" width="127" height="17" viewBox="0 0 127 17">
    <defs>
        <path id="a" d="M.022.302h126.73v16.677H.021z"/>
    </defs>
    <g fill="none" fill-rule="evenodd">
        <g>
            <mask id="b" fill="#fff">
                <use xlink:href="#a"/>
            </mask>
            <path fill="#B7C9D3" d="M75.046 14.853c2.231 0 2.923-1.51 3.39-3.328H77.39c-1.45 0-3.86.24-3.86 2.146 0 .788.758 1.182 1.517 1.182zm2.923.154h-.045C76.898 16.277 75.872 17 74.221 17c-2.074 0-3.546-1.14-3.546-3.22 0-3.723 4.238-4.007 7.049-4.007h1.048c.09-.307.09-.636.09-.964 0-1.138-1.25-1.467-2.298-1.467-1.317 0-2.589.329-3.771.876l.424-2.343c1.271-.438 2.566-.68 3.904-.68 2.298 0 4.462.833 4.462 3.482 0 1.512-1.138 5.936-1.405 8.06h-2.521l.312-1.73zM.468 5.448h2.165l.513-2.321 3.212-1.03-.736 3.351h2.677l-.468 2.146H5.153L4.06 12.522a4.576 4.576 0 0 0-.133 1.095c0 .679.468 1.095 1.137 1.095.536 0 1.071-.11 1.45-.263l-.513 2.278c-.513.109-1.093.263-1.606.263-2.03 0-3.458-.789-3.458-2.957 0-.876.179-1.73.38-2.627l.847-3.812H0l.468-2.146M10.62.586h2.99l-.625 2.804h-2.99L10.62.586zM9.527 5.448h2.99l-2.454 11.279h-2.99L9.527 5.448zM21.545 8.033c-.581-.373-1.361-.57-2.187-.57-2.387 0-3.726 2.19-3.726 4.315 0 1.466.49 2.934 2.544 2.934.736 0 1.65-.198 2.431-.57l-.334 2.322c-.915.438-1.896.526-2.878.526-2.968 0-4.886-1.949-4.886-4.862 0-3.942 2.655-6.942 6.782-6.942 1.116 0 2.186.197 2.99.437l-.736 2.41M24.823.302h2.99l-1.986 9.242h.045l4.172-4.096h3.882l-5.51 5.147 3.457 6.132h-3.368l-2.968-5.978h-.045L24.2 16.727h-2.923L24.823.302M44.703 5.448h2.164l.513-2.321 3.213-1.03-.737 3.351h2.678l-.469 2.146h-2.678l-1.093 4.928a4.595 4.595 0 0 0-.134 1.095c0 .679.47 1.095 1.139 1.095.535 0 1.07-.11 1.45-.263l-.514 2.278c-.513.109-1.093.263-1.606.263-2.03 0-3.458-.789-3.458-2.957 0-.876.178-1.73.38-2.627l.847-3.812h-2.164l.469-2.146" mask="url(#b)"/>
            <path fill="#B7C9D3" d="M43.703 9.478c0-2.87-1.875-4.292-4.708-4.292-3.77 0-6.537 3.373-6.537 6.877 0 3.35 2.231 4.927 5.533 4.927 1.227 0 2.5-.285 3.659-.635l.38-2.322c-1.117.504-2.299.81-3.526.81-1.912 0-3.03-.666-3.173-2.44h-.002c-.006-.103-.015-.203-.015-.311l.001-.063v-.033h.001a5.984 5.984 0 0 1 .486-2.237c.574-1.435 1.387-2.427 3.148-2.427 1.25 0 1.897.679 1.897 1.883 0 .263-.023.504-.067.767h-4.09c-.266.886-.312 1.48-.318 2.014h7.04c.179-.832.29-1.664.29-2.518M53.823 6.697c.09-.438.179-.898.246-1.249h2.789L56.59 6.96h.044c.804-1.16 2.12-1.773 3.525-1.773 1.361 0 2.767.788 2.923 2.146h.045c.758-1.467 2.431-2.146 4.038-2.146 1.717 0 3.19 1.38 3.19 3.088 0 1.007-.268 2.146-.513 3.066l-1.205 5.387h-2.99l1.206-5.497c.155-.679.379-1.73.379-2.41 0-.831-.647-1.357-1.406-1.357-2.075 0-2.588 2.365-2.967 3.899l-1.183 5.365h-2.989l1.205-5.497c.156-.679.38-1.73.38-2.41 0-.831-.648-1.357-1.407-1.357-2.03 0-2.588 2.387-2.967 3.899l-1.183 5.365h-2.989l2.097-10.03M90.464 7.745c-.321-.172-1.147-.413-1.995-.413-.892 0-2.007.241-2.007 1.138 0 1.424 3.881 1.95 3.881 4.71 0 2.934-2.61 3.81-5.175 3.81-1.205 0-2.41-.175-3.503-.679l.647-2.343c.847.46 1.695.875 2.856.875 1.004 0 2.052-.329 2.052-1.247 0-1.818-3.882-1.994-3.882-4.819 0-2.65 2.61-3.59 4.975-3.59 1.094 0 2.209.196 2.798.345l-.647 2.213M92.373 5.448h2.164l.513-2.321 3.213-1.03-.736 3.351h2.677l-.468 2.146h-2.678l-1.093 4.928a4.597 4.597 0 0 0-.133 1.095c0 .679.468 1.095 1.138 1.095.535 0 1.07-.11 1.45-.263l-.513 2.278c-.514.109-1.094.263-1.607.263-2.03 0-3.458-.789-3.458-2.957 0-.876.179-1.73.379-2.627l.848-3.812h-2.164l.468-2.146M112.642 6.96c.09-.482.179-.986.268-1.512h2.856l-.402 2.125h.045c.536-1.227 2.008-2.387 3.39-2.387.38 0 .782.021 1.139.11l-.625 2.868a3.853 3.853 0 0 0-1.137-.175c-2.12 0-3.146 1.861-3.526 3.679l-1.07 5.059h-2.99l2.052-9.768M110.568 9.478c0-2.87-1.874-4.292-4.708-4.292-3.77 0-6.537 3.373-6.537 6.877 0 3.35 2.23 4.927 5.533 4.927 1.227 0 2.499-.285 3.659-.635l.38-2.322c-1.116.504-2.299.81-3.525.81-1.913 0-3.03-.666-3.174-2.44h-.002c-.006-.103-.016-.203-.016-.311l.002-.063v-.033h.001a5.97 5.97 0 0 1 .486-2.237c.574-1.435 1.386-2.427 3.148-2.427 1.25 0 1.897.679 1.897 1.883 0 .263-.023.504-.067.767h-4.09c-.266.886-.313 1.48-.318 2.014h7.04c.179-.832.29-1.664.29-2.518" mask="url(#b)"/>
        </g>
        <path fill="#B7C9D3" d="M124.023 7.293h.567c.367 0 .604-.076.604-.457 0-.332-.298-.43-.604-.43h-.567v.887zm-.477-1.26h1.12c.673 0 1.004.27 1.004.825 0 .47-.297.81-.756.81l.834 1.296h-.507l-.818-1.296h-.4v1.296h-.477V6.032zm.963 3.595c1.147 0 2.013-.929 2.013-2.126 0-1.198-.866-2.127-2.013-2.127-1.163 0-2.031.929-2.031 2.127 0 1.197.868 2.126 2.03 2.126zM124.5 5C125.877 5 127 6.121 127 7.502A2.503 2.503 0 0 1 124.5 10a2.504 2.504 0 0 1-2.5-2.498A2.505 2.505 0 0 1 124.5 5z"/>
        <path d="M0 0h127v24H0z"/>
    </g>
</svg>
