<svg xmlns="http://www.w3.org/2000/svg" xmlns:xlink="http://www.w3.org/1999/xlink" width="116" height="16" viewBox="0 0 116 16">
    <defs>
        <path id="a" d="M.02.277h115.753v15.287H.02z"/>
    </defs>
    <g fill="none" fill-rule="evenodd">
        <g>
            <mask id="b" fill="#fff">
                <use xlink:href="#a"/>
            </mask>
            <path fill="#FFF" d="M68.546 13.616c2.038 0 2.67-1.385 3.097-3.052h-.957c-1.325 0-3.525.221-3.525 1.968 0 .722.692 1.084 1.385 1.084zm2.67.14h-.041c-.937 1.165-1.875 1.827-3.383 1.827-1.894 0-3.239-1.044-3.239-2.95 0-3.414 3.871-3.675 6.439-3.675h.957c.082-.281.082-.582.082-.883 0-1.044-1.141-1.345-2.099-1.345-1.202 0-2.364.301-3.444.803l.387-2.148c1.162-.4 2.344-.622 3.567-.622 2.098 0 4.075.763 4.075 3.191 0 1.386-1.04 5.441-1.284 7.388H70.93l.286-1.586zM.428 4.994h1.977l.468-2.128 2.935-.943-.673 3.071h2.446l-.429 1.968H4.707l-.998 4.516a4.21 4.21 0 0 0-.123 1.004c0 .623.429 1.004 1.04 1.004.489 0 .978-.1 1.325-.241l-.47 2.088c-.468.1-.998.24-1.466.24-1.855 0-3.16-.722-3.16-2.71 0-.802.164-1.585.347-2.408l.775-3.493H0l.428-1.968M9.7.537h2.73l-.57 2.57H9.13L9.7.537zm-.998 4.457h2.73L9.191 15.333h-2.73L8.7 4.994zM19.679 7.363c-.53-.341-1.244-.522-1.998-.522-2.18 0-3.403 2.008-3.403 3.955 0 1.344.448 2.69 2.324 2.69.672 0 1.508-.181 2.22-.522l-.305 2.128c-.836.401-1.732.482-2.629.482-2.71 0-4.463-1.786-4.463-4.457 0-3.613 2.425-6.363 6.195-6.363 1.02 0 1.997.18 2.731.4l-.672 2.21M22.673.277h2.731L23.59 8.748h.041l3.81-3.754h3.546l-5.033 4.718 3.159 5.62h-3.077l-2.71-5.48h-.042l-1.181 5.48h-2.67L22.673.278M40.83 4.994h1.977l.469-2.128 2.935-.943-.673 3.071h2.445l-.427 1.968H45.11l-.999 4.516c-.06.241-.122.603-.122 1.004 0 .623.428 1.004 1.04 1.004a3.7 3.7 0 0 0 1.324-.241l-.47 2.088c-.467.1-.997.24-1.466.24-1.854 0-3.159-.722-3.159-2.71 0-.802.164-1.585.347-2.408l.775-3.493h-1.977l.428-1.968" mask="url(#b)"/>
            <path fill="#FFF" d="M39.918 8.688c0-2.63-1.712-3.934-4.3-3.934-3.444 0-5.971 3.092-5.971 6.303 0 3.072 2.038 4.517 5.054 4.517 1.12 0 2.282-.26 3.341-.582l.347-2.129c-1.02.463-2.1.744-3.22.744-1.746 0-2.767-.612-2.898-2.237h-.002c-.005-.095-.014-.187-.014-.286l.001-.057v-.03h.002c.012-.708.17-1.407.443-2.051.525-1.316 1.267-2.225 2.876-2.225 1.141 0 1.732.622 1.732 1.726 0 .241-.02.462-.061.703H33.51c-.242.812-.284 1.357-.29 1.847h6.432c.162-.763.265-1.526.265-2.309M49.162 6.139c.081-.402.162-.823.224-1.145h2.547L51.69 6.38h.04c.734-1.063 1.936-1.625 3.22-1.625 1.243 0 2.526.722 2.67 1.967h.04c.693-1.345 2.221-1.967 3.688-1.967 1.57 0 2.914 1.264 2.914 2.83 0 .924-.244 1.968-.468 2.81l-1.1 4.939H59.96l1.101-5.04c.143-.621.346-1.585.346-2.207 0-.763-.59-1.245-1.283-1.245-1.896 0-2.365 2.168-2.71 3.574l-1.08 4.918h-2.731l1.1-5.04c.143-.621.347-1.585.347-2.207 0-.763-.591-1.245-1.284-1.245-1.855 0-2.364 2.188-2.71 3.574l-1.08 4.918h-2.731l1.916-9.194M82.628 7.1c-.293-.158-1.047-.379-1.821-.379-.815 0-1.834.221-1.834 1.043 0 1.305 3.545 1.788 3.545 4.317 0 2.69-2.384 3.493-4.727 3.493-1.1 0-2.201-.16-3.2-.622l.592-2.148c.774.421 1.548.803 2.608.803.917 0 1.875-.302 1.875-1.144 0-1.667-3.546-1.828-3.546-4.417 0-2.43 2.384-3.292 4.544-3.292.999 0 2.017.18 2.555.317L82.63 7.1M84.372 4.994h1.977l.469-2.128 2.934-.943-.672 3.071h2.445l-.428 1.968h-2.445l-.999 4.516c-.06.241-.122.603-.122 1.004 0 .623.428 1.004 1.04 1.004.488 0 .977-.1 1.324-.241l-.469 2.088c-.469.1-.998.24-1.467.24-1.854 0-3.158-.722-3.158-2.71 0-.802.163-1.585.346-2.408l.775-3.493h-1.977l.427-1.968M102.886 6.38c.081-.442.163-.904.244-1.386h2.609l-.367 1.948h.041c.49-1.125 1.834-2.188 3.097-2.188.347 0 .714.019 1.04.1l-.571 2.63c-.306-.1-.693-.16-1.039-.16-1.936 0-2.874 1.705-3.22 3.372l-.978 4.637h-2.73l1.874-8.954M100.99 8.688c0-2.63-1.71-3.934-4.3-3.934-3.442 0-5.97 3.092-5.97 6.303 0 3.072 2.038 4.517 5.054 4.517 1.12 0 2.283-.26 3.342-.582l.346-2.129c-1.019.463-2.098.744-3.219.744-1.747 0-2.767-.612-2.899-2.237h-.002c-.005-.095-.014-.187-.014-.286l.002-.057-.001-.03h.002a5.49 5.49 0 0 1 .444-2.051C94.299 7.63 95.04 6.72 96.65 6.72c1.141 0 1.732.622 1.732 1.726 0 .241-.02.462-.06.703h-3.737c-.242.812-.285 1.357-.29 1.847h6.43c.164-.763.266-1.526.266-2.309" mask="url(#b)"/>
        </g>
        <path fill="#FFF" d="M113.28 6.685h.518c.336 0 .553-.07.553-.419 0-.304-.273-.393-.553-.393h-.517v.812zm-.435-1.155h1.023c.615 0 .918.248.918.757 0 .43-.272.742-.69.742l.76 1.188h-.463l-.747-1.188h-.365v1.188h-.436V5.53zm.88 3.295c1.047 0 1.839-.85 1.839-1.948 0-1.099-.792-1.95-1.84-1.95-1.062 0-1.855.851-1.855 1.95 0 1.097.793 1.948 1.855 1.948zm-.008-4.242a2.291 2.291 0 0 1 0 4.584 2.292 2.292 0 0 1 0-4.583z"/>
        <path d="M0 0h116v22H0z"/>
    </g>
</svg>
