<svg xmlns="http://www.w3.org/2000/svg" width="12" height="36" viewBox="0 0 12 36">
    <g fill="none" fill-rule="evenodd">
        <path fill="#414141" d="M9.825 29.601l-4.982-5 .654-.652 5.619 5.64-.012.012.012.012-5.62 5.64-.653-.652 4.982-5zm-3.973 0l-4.982-5 .654-.652 5.619 5.64-.013.012.013.012-5.62 5.64L.87 34.6l4.982-5z"/>
        <path fill="#FFF" d="M9.825 5.601l-4.982-5 .654-.652 5.619 5.64-.012.012.012.012-5.62 5.64-.653-.652 4.982-5zm-3.973 0L.87.601l.654-.652 5.619 5.64-.013.012.013.012-5.62 5.64L.87 10.6l4.982-5z"/>
    </g>
</svg>
