<svg xmlns="http://www.w3.org/2000/svg" width="12" height="32" viewBox="0 0 12 32">
    <g fill="#FFF" fill-rule="evenodd">
        <path d="M7.414 26l3.89-3.89a.5.5 0 0 0-.004-.71l-.7-.7a.494.494 0 0 0-.71-.005L6 24.585l-3.89-3.89a.5.5 0 0 0-.71.005l-.7.7a.494.494 0 0 0-.005.71L4.585 26l-3.89 3.89a.5.5 0 0 0 .005.71l.7.7c.206.206.515.2.71.005L6 27.415l3.89 3.89a.5.5 0 0 0 .71-.005l.7-.7a.494.494 0 0 0 .005-.71L7.415 26zM6.004 7.452a.5.5 0 0 0 .35-.149l4.949-4.95a.507.507 0 0 0-.003-.71l-.7-.7A.495.495 0 0 0 9.889.94L6 4.828l1.06 1.06a.495.495 0 0 1-.003.712l-.7.7a.504.504 0 0 1-.36.147zM4.943 6.6a.507.507 0 0 1-.003-.711L6 4.829z"/>
    </g>
</svg>
