<svg xmlns="http://www.w3.org/2000/svg" xmlns:xlink="http://www.w3.org/1999/xlink" width="166" height="30" viewBox="0 0 166 30">
    <defs>
        <rect id="a" width="30" height="30" rx="4"/>
        <mask id="e" width="30" height="30" x="0" y="0" fill="#fff">
            <use xlink:href="#a"/>
        </mask>
        <rect id="b" width="30" height="30" rx="4"/>
        <mask id="f" width="30" height="30" x="0" y="0" fill="#fff">
            <use xlink:href="#b"/>
        </mask>
        <rect id="c" width="30" height="30" rx="4"/>
        <mask id="g" width="30" height="30" x="0" y="0" fill="#fff">
            <use xlink:href="#c"/>
        </mask>
        <rect id="d" width="30" height="30" rx="4"/>
        <mask id="h" width="30" height="30" x="0" y="0" fill="#fff">
            <use xlink:href="#d"/>
        </mask>
    </defs>
    <g fill="none" fill-rule="evenodd">
        <g transform="translate(90)">
            <use stroke="#2A7CC7" stroke-width="4" mask="url(#e)" xlink:href="#a"/>
            <path fill="#2A7CC7" d="M15.39 11.165A.534.534 0 0 0 15 11c-.15 0-.28.055-.39.165L8.164 17.61a.54.54 0 0 0-.165.395.54.54 0 0 0 .165.396l1.442 1.435c.11.11.24.165.39.165.151 0 .281-.055.391-.165L15 15.217l4.612 4.618c.11.11.24.165.39.165.151 0 .281-.055.391-.165l1.442-1.435a.54.54 0 0 0 .165-.396.54.54 0 0 0-.165-.395l-6.444-6.444z"/>
        </g>
        <g transform="translate(60)">
            <use stroke="#B7C9D3" stroke-width="4" mask="url(#f)" xlink:href="#b"/>
            <path fill="#B7C9D3" d="M15.39 11.165A.534.534 0 0 0 15 11c-.15 0-.28.055-.39.165L8.164 17.61a.54.54 0 0 0-.165.395.54.54 0 0 0 .165.396l1.442 1.435c.11.11.24.165.39.165.151 0 .281-.055.391-.165L15 15.217l4.612 4.618c.11.11.24.165.39.165.151 0 .281-.055.391-.165l1.442-1.435a.54.54 0 0 0 .165-.396.54.54 0 0 0-.165-.395l-6.444-6.444z"/>
        </g>
        <g transform="translate(30)">
            <use stroke="#2A7CC7" stroke-width="4" mask="url(#g)" xlink:href="#c"/>
            <path fill="#2A7CC7" d="M15.39 19.835A.534.534 0 0 1 15 20a.534.534 0 0 1-.39-.165L8.164 13.39A.54.54 0 0 1 8 12.996a.54.54 0 0 1 .165-.396l1.442-1.435c.11-.11.24-.165.39-.165.151 0 .281.055.391.165L15 15.783l4.612-4.618c.11-.11.24-.165.39-.165.151 0 .281.055.391.165l1.442 1.435a.54.54 0 0 1 .165.396.54.54 0 0 1-.165.395l-6.444 6.444z"/>
        </g>
        <g>
            <use stroke="#B7C9D3" stroke-width="4" mask="url(#h)" xlink:href="#d"/>
            <path fill="#B7C9D3" d="M15.39 19.835A.534.534 0 0 1 15 20a.534.534 0 0 1-.39-.165L8.164 13.39A.54.54 0 0 1 8 12.996a.54.54 0 0 1 .165-.396l1.442-1.435c.11-.11.24-.165.39-.165.151 0 .281.055.391.165L15 15.783l4.612-4.618c.11-.11.24-.165.39-.165.151 0 .281.055.391.165l1.442 1.435a.54.54 0 0 1 .165.396.54.54 0 0 1-.165.395l-6.444 6.444z"/>
        </g>
        <path fill="#B7C9D3" d="M164 3h2v24h-2z" opacity=".2"/>
    </g>
</svg>
