<svg xmlns="http://www.w3.org/2000/svg" width="32" height="32" viewBox="0 0 32 32">
    <g fill="none" fill-rule="evenodd">
        <path fill="#009CDE" d="M0 0h32v32H0z"/>
        <path fill="#FFF" d="M2.891 11.412h2.104l.492-2.369L8.601 8l-.71 3.412h2.595l-.464 2.172H7.427l-1.066 5.02c-.054.281-.136.676-.136 1.127 0 .705.464 1.128 1.12 1.128.519 0 1.038-.112 1.393-.253l-.492 2.312c-.491.113-1.065.282-1.557.282-1.967 0-3.36-.79-3.36-3.017 0-.903.164-1.777.355-2.68l.82-3.891H2.4l.491-2.2zm9.764 1.703c.087-.443.174-.886.26-1.247h2.834l-.289 1.524h.058c.838-1.163 2.168-1.773 3.614-1.773 1.388 0 2.834.804 3.008 2.161h.057c.781-1.468 2.487-2.161 4.135-2.161 1.764 0 3.268 1.385 3.268 3.103 0 .997-.26 2.133-.52 3.075L27.836 23.2H24.77l1.243-5.513c.145-.693.376-1.746.376-2.41 0-.832-.665-1.358-1.446-1.358-2.14 0-2.66 2.382-3.036 3.906L20.694 23.2h-3.065l1.243-5.513c.174-.693.405-1.746.405-2.41 0-.832-.665-1.358-1.446-1.358-2.082 0-2.66 2.382-3.036 3.906L13.58 23.2h-3.095l2.17-10.085z"/>
    </g>
</svg>
