<svg xmlns="http://www.w3.org/2000/svg" width="46" height="92" viewBox="0 0 46 92">
    <g fill="none" fill-rule="evenodd">
        <g transform="translate(0 46)">
            <rect width="46" height="46" fill="#009CDE" opacity=".4" rx="4"/>
            <path fill="#FFF" d="M23.219 14.628L12.385 25.423l-1.412-1.416 12.219-12.175.027.027.027-.027 12.219 12.175-1.412 1.416-10.834-10.795zm0 8.61L12.385 34.031l-1.412-1.417 12.219-12.174.027.027.027-.027 12.219 12.174-1.412 1.417-10.834-10.795z"/>
        </g>
        <g>
            <rect width="46" height="46" fill="#768692" opacity=".4" rx="4"/>
            <path fill="#FFF" d="M23.219 14.628L12.385 25.423l-1.412-1.416 12.219-12.175.027.027.027-.027 12.219 12.175-1.412 1.416-10.834-10.795zm0 8.61L12.385 34.031l-1.412-1.417 12.219-12.174.027.027.027-.027 12.219 12.174-1.412 1.417-10.834-10.795z"/>
        </g>
    </g>
</svg>
