<svg xmlns="http://www.w3.org/2000/svg" width="48" height="48" viewBox="0 0 48 48">
    <path fill="#009CDE" fill-rule="evenodd" d="M24.001 42c-8.041 0-17-3.178-17-7.738v-8.199c3 2.95 9.456 4.937 17.001 4.937 7.544 0 13.999-1.987 16.999-4.936v8.528c0 4.015-7.785 7.408-17 7.408zm0-36C34.019 6 41 9.426 41 12.5S34.019 19 24.001 19C13.982 19 7 15.574 7 12.5S13.982 6 24.001 6zm17 16c0 3.38-6.831 7-16.999 7-10.17 0-17.001-3.62-17.001-7v-5.662c3 2.785 9.456 4.662 17.001 4.662 7.544 0 13.999-1.877 16.999-4.662V22zM43 12.5C43 7.733 34.654 4 24.001 4 13.347 4 5 7.733 5 12.5c0 .11.027.216.036.324-.011.059-.035.114-.035.176v21.262c0 5.369 8.523 9.738 19 9.738 10.832 0 19-4.044 19-9.408V13c0-.062-.025-.117-.036-.176.009-.108.035-.214.035-.324z"/>
</svg>
