<svg xmlns="http://www.w3.org/2000/svg" width="24" height="24" viewBox="0 0 24 24">
    <path fill="#D0011B" fill-rule="evenodd" d="M13 16.742v-1.484a.25.25 0 0 0-.074-.184.24.24 0 0 0-.176-.074h-1.5a.24.24 0 0 0-.176.074.25.25 0 0 0-.074.184v1.484a.25.25 0 0 0 .074.184.24.24 0 0 0 .176.074h1.5a.24.24 0 0 0 .176-.074.25.25 0 0 0 .074-.184zm.124-2.967l.16-4.482c0-.078-.03-.14-.089-.186-.077-.071-.149-.107-.214-.107h-1.962c-.065 0-.137.036-.214.107-.06.046-.09.114-.09.206l.152 4.462c0 .065.03.12.09.162a.36.36 0 0 0 .214.063h1.65a.34.34 0 0 0 .21-.063.22.22 0 0 0 .093-.162zm-.125-8.211l6.85 11.846c.207.353.201.707-.019 1.06-.1.163-.239.292-.414.387a1.167 1.167 0 0 1-.567.143H5.151c-.203 0-.391-.048-.567-.143a1.092 1.092 0 0 1-.414-.387c-.22-.353-.226-.707-.018-1.06l6.85-11.846c.1-.174.24-.312.418-.413.179-.1.372-.151.58-.151a1.157 1.157 0 0 1 .999.564z"/>
</svg>
