<svg xmlns="http://www.w3.org/2000/svg" width="48" height="48" viewBox="0 0 48 48">
    <path fill="#009CDE" fill-rule="evenodd" d="M32 40c0-1.103-.897-2-2-2s-2 .897-2 2 .897 2 2 2 2-.897 2-2m2 0c0 2.206-1.794 4-4 4s-4-1.794-4-4 1.794-4 4-4 4 1.794 4 4m-20 0c0-1.103-.897-2-2-2s-2 .897-2 2 .897 2 2 2 2-.897 2-2m2 0c0 2.206-1.794 4-4 4s-4-1.794-4-4 1.794-4 4-4 4 1.794 4 4M48 5a1 1 0 0 1-1 1h-5.134l-3.754 26.282A2.008 2.008 0 0 1 36.132 34H7c-1.654 0-3-1.346-3-3s1.346-3 3-3h24a1.001 1.001 0 0 0 0-2H5c-1.654 0-3-1.346-3-3s1.346-3 3-3h27a1.001 1.001 0 0 0 0-2H3c-1.654 0-3-1.346-3-3s1.346-3 3-3h32a1 1 0 1 1 0 2H3a1.001 1.001 0 0 0 0 2h29c1.654 0 3 1.346 3 3s-1.346 3-3 3H5a1.001 1.001 0 0 0 0 2h26c1.654 0 3 1.346 3 3s-1.346 3-3 3H7a1.001 1.001 0 0 0 0 2h29.132l3.754-26.282A2.014 2.014 0 0 1 41.866 4H47a1 1 0 0 1 1 1"/>
</svg>
