<svg xmlns="http://www.w3.org/2000/svg" width="28" height="28" viewBox="0 0 28 28">
    <g fill="#B7C9D3" fill-rule="evenodd">
        <path d="M6 9V6.999C6 6.447 6.449 6 7.007 6h13.986A1 1 0 0 1 22 6.999V9h-.958V6.975H7.007V9H6zM22.995 17l2.037-6h-1.951l-1.598 4.23L19.931 11h-1.997l2.076 6h2.985zm-5.963-4.022c-.011-.316-.754-1.942-2.992-1.977-1.85-.03-2.992.631-2.992 1.525 0 2.215 3.98 1.66 3.989 2.704.004.464-.22.795-.997.795-1.293 0-1.246-.8-1.265-1.024h-1.727c-.002.742.65 2.02 2.992 2 2.215-.02 3.023-.76 2.992-1.647-.06-1.778-3.936-1.359-4.02-2.655-.026-.409.39-.71 1.028-.702.87.011 1.171.568 1.216.98h1.776zm-8.003 0C8.984 12.178 8.332 11 6.056 11 4.317 11 3.012 12.042 3 14.02c-.012 1.978 1.658 2.986 3.056 2.98 1.987-.009 2.89-.936 2.973-2.016h-1.95c-.02.235 0 1.02-1.023 1.04-1.173.023-1.073-1.006-1.101-2.004-.028-.999-.04-2.032 1.1-2.024.91.007.921.574 1.023.98h1.95zM6 19v2.001c0 .552.449.999 1.007.999h13.986A1 1 0 0 0 22 21.001V19h-.958v2.025H7.007V19H6z"/>
    </g>
</svg>
