<svg xmlns="http://www.w3.org/2000/svg" width="28" height="28" viewBox="0 0 28 28">
    <path fill="#B7C9D3" fill-rule="evenodd" d="M21 21V11h-4v3.571c0 .238.131.226-.036.393s-.155.036-.393.036H13v6h8zm-6-9.857V7h-3v4c0 .429-.588 1-1 1H7v6h5v-3c0-.435.154-.869.321-1.035L15 11.143zM11 8l-3 3h3V8zm5 3.616L13.616 14H16v-2.384zM21 10c.518 0 1 .576 1 1v10c0 .437-.422 1-1 1h-8c-.484 0-1-.422-1-1v-2H7c-.484 0-1-.594-1-1v-6c0-.547.224-1.075.607-1.464l3.643-3.643C10.416 6.727 11 6 12 6h3c.424 0 1 .506 1 1v3h5z"/>
</svg>
