<svg xmlns="http://www.w3.org/2000/svg" width="28" height="28" viewBox="0 0 28 28">
    <path fill="#B7C9D3" fill-rule="evenodd" d="M11 17h3v-1h-3v1zm0-2h6v-1h-6v1zm0-2h6v-1h-6v1zm6-4V8h1v1h1V7.764A.764.764 0 0 0 18.236 7h-1.472c-.422 0-.764.342-.764.564V9h1zm-7 0V8h1v1h1V7.764A.764.764 0 0 0 11.236 7H9.764C9.342 7 9 7.342 9 7.564V9h1zm-.236 11h8.472a.764.764 0 0 0 .764-.764v-8.472a.764.764 0 0 0-.764-.764H9.764a.764.764 0 0 0-.764.764v8.472c0 .422.342.764.764.764zm-1 1A.764.764 0 0 1 8 20.236V9.764C8 9.342 8.342 9 8.764 9h10.472c.422 0 .764.342.764.764v10.472a.764.764 0 0 1-.764.764H8.764z"/>
</svg>
