<svg xmlns="http://www.w3.org/2000/svg" width="48" height="48" viewBox="0 0 48 48">
    <path fill="#009CDE" fill-rule="evenodd" d="M25.001 15.25a3.879 3.879 0 0 1 3.874 3.875 1 1 0 1 0 2 0c0-2.898-2.111-5.306-4.875-5.783v-2.343a1 1 0 1 0-2 0v2.344c-2.764.477-4.875 2.885-4.875 5.782a5.882 5.882 0 0 0 5.876 5.874 3.88 3.88 0 0 1 3.874 3.876 3.879 3.879 0 0 1-3.874 3.874 3.879 3.879 0 0 1-3.876-3.874 1 1 0 1 0-2 0c0 2.897 2.111 5.305 4.875 5.782v2.342a1 1 0 1 0 2 0v-2.341c2.764-.477 4.875-2.885 4.875-5.783a5.882 5.882 0 0 0-5.874-5.876 3.879 3.879 0 0 1-3.876-3.874 3.879 3.879 0 0 1 3.876-3.874m-5.873 30.207a21.816 21.816 0 0 1-6.616-2.693 1 1 0 1 0-1.047 1.705 23.824 23.824 0 0 0 7.222 2.939 1.001 1.001 0 0 0 .441-1.951m-13.62-9.532a.999.999 0 1 0-1.68 1.086 24.065 24.065 0 0 0 5.234 5.774.994.994 0 0 0 1.405-.16 1 1 0 0 0-.159-1.404 22.088 22.088 0 0 1-4.8-5.296m32.219 5.268a21.92 21.92 0 0 1-6.232 3.496 1 1 0 0 0 .682 1.88 23.9 23.9 0 0 0 6.798-3.814 1 1 0 1 0-1.248-1.562m7.437-8.12a1 1 0 0 0-1.335.468 22.038 22.038 0 0 1-4.108 5.848 1 1 0 0 0 1.429 1.399 24.019 24.019 0 0 0 4.48-6.378 1.001 1.001 0 0 0-.466-1.336m-40.973.509a21.878 21.878 0 0 1-2.023-6.851.993.993 0 0 0-1.115-.87.999.999 0 0 0-.869 1.116 23.806 23.806 0 0 0 2.207 7.477 1.002 1.002 0 0 0 1.337.463.999.999 0 0 0 .463-1.335m24.725 11.864a22.32 22.32 0 0 1-7.134.44 1 1 0 1 0-.199 1.99 24.31 24.31 0 0 0 7.778-.48 1 1 0 0 0-.445-1.95M47 22.896a1 1 0 0 0-1 1v.103c0 2.416-.388 4.789-1.153 7.053a.998.998 0 0 0 .947 1.32 1 1 0 0 0 .947-.68A23.98 23.98 0 0 0 48 23.999v-.103a1 1 0 0 0-1-1M42.464 12.03a.999.999 0 0 0 1.678-1.09 24.092 24.092 0 0 0-5.246-5.763 1.001 1.001 0 0 0-1.243 1.568 22.046 22.046 0 0 1 4.811 5.285M1 25.024c.553 0 1-.473 1-1.025 0-2.4.383-4.756 1.139-7.006a1 1 0 0 0-1.897-.637A23.979 23.979 0 0 0 0 23.999v.05c0 .554.447.975 1 .975M43.788 14.37a21.824 21.824 0 0 1 2.038 6.844 1 1 0 1 0 1.985-.25 23.851 23.851 0 0 0-2.226-7.471 1 1 0 1 0-1.797.877M28.824 2.529a21.816 21.816 0 0 1 6.624 2.678 1.002 1.002 0 0 0 1.375-.332 1 1 0 0 0-.332-1.375A23.826 23.826 0 0 0 29.262.577a1 1 0 1 0-.438 1.952m-10.013.058c.074 0 .15-.008.225-.025a22.382 22.382 0 0 1 7.132-.458.989.989 0 0 0 1.093-.898 1 1 0 0 0-.898-1.092 24.333 24.333 0 0 0-7.776.498 1 1 0 0 0 .224 1.975M9.609 7.055c.22 0 .441-.072.625-.22a21.907 21.907 0 0 1 6.224-3.51 1 1 0 1 0-.686-1.88 23.935 23.935 0 0 0-6.79 3.83 1 1 0 0 0 .627 1.78m-7.263 6.58a23.991 23.991 0 0 1 4.466-6.387 1 1 0 0 1 1.431 1.395A22.063 22.063 0 0 0 4.149 14.5a.997.997 0 0 1-1.333.469 1 1 0 0 1-.47-1.334"/>
</svg>
