<svg xmlns="http://www.w3.org/2000/svg" width="28" height="28" viewBox="0 0 28 28">
    <path fill="#FFF" fill-rule="evenodd" d="M19.469 9.969c.146.146.53.667.53 1.03v9c0 .46-.54 1-1 1H9c-.516 0-1-.387-1-1V8c0-.481.578-1 1-1h6.75c.45 0 1.137.387 1.282.532l2.438 2.438zm-3.47-1.97v3h3c-.051-.15-.171-.257-.233-.32L16.32 8.236c-.063-.063-.17-.183-.321-.235zm3 12v-8h-3c-.422 0-1-.434-1-1V8H9v12h10zm-8-6.75a.24.24 0 0 1 .072-.178.24.24 0 0 1 .179-.071h5.5a.24.24 0 0 1 .25.25v.5a.243.243 0 0 1-.07.18.243.243 0 0 1-.18.07h-5.5a.24.24 0 0 1-.25-.25v-.5zM16.75 15c.074 0 .134.025.18.072a.24.24 0 0 1 .07.179v.5a.243.243 0 0 1-.07.18.243.243 0 0 1-.18.07h-5.5a.24.24 0 0 1-.25-.25v-.5a.24.24 0 0 1 .072-.18.24.24 0 0 1 .179-.07h5.5zm0 2c.074 0 .134.025.18.072a.24.24 0 0 1 .07.179v.5a.243.243 0 0 1-.07.18.243.243 0 0 1-.18.07h-5.5a.24.24 0 0 1-.25-.25v-.5a.24.24 0 0 1 .072-.18.24.24 0 0 1 .179-.07h5.5z"/>
</svg>
