<svg xmlns="http://www.w3.org/2000/svg" width="48" height="48" viewBox="0 0 48 48">
    <path fill="#009CDE" fill-rule="evenodd" d="M27.355 29.147l1.433 1.404-6.449 6.315-4.298-4.21 1.433-1.404 2.865 2.807 5.016-4.912zm7.019-1.178c-1.961-4.006-6.13-6.785-10.96-6.785-5.29 0-9.787 3.33-11.457 7.956-1.22.088-2.386.69-3.375 1.397l-2.136-1.883 21.495-21.05 2.134 2.092a6.12 6.12 0 0 0-1.232 3.703c.007 1.662.68 3.232 1.894 4.422 2.3 2.25 5.774 2.467 8.299.65l2.518 2.465-7.18 7.033zm-10.96 15.046c-5.587 0-10.132-4.451-10.132-9.923s4.545-9.923 10.132-9.923 10.133 4.451 10.133 9.923S29 43.015 23.414 43.015zM15.025 5.27l2.56.933a6.067 6.067 0 0 0 2.52 6.268L7.598 24.72 15.025 5.27zm28.678 14.965l-3.896-3.816a1.03 1.03 0 0 0-1.433 0 4.405 4.405 0 0 1-6.203 0c-1.739-1.703-1.739-4.372 0-6.074a.979.979 0 0 0 0-1.404L28.658 5.5a1.028 1.028 0 0 0-1.433 0l-5.653 5.536c-1.777-.954-2.576-3.075-1.807-5.097a.978.978 0 0 0-.028-.76 1.002 1.002 0 0 0-.568-.517l-4.386-1.598a1.02 1.02 0 0 0-1.302.582L4.064 28.307c-.02.052-.015.105-.025.159-.014.063-.039.123-.039.188 0 .007.004.014.004.021.001.07.024.135.042.203.013.058.017.118.041.171.03.066.078.12.12.178.032.041.051.091.09.129l3.513 3.441c.198.194.458.291.717.291.259 0 .518-.149.717-.343a4.636 4.636 0 0 1 2.125-1.2 11.634 11.634 0 0 0-.114 1.547c0 6.566 5.454 11.908 12.16 11.908 6.704 0 12.158-5.342 12.158-11.908a11.63 11.63 0 0 0-.425-3.074l8.555-8.38a.977.977 0 0 0 0-1.404z"/>
</svg>
