<svg xmlns="http://www.w3.org/2000/svg" width="28" height="28" viewBox="0 0 28 28">
    <path fill="#FFF" fill-rule="evenodd" d="M13 11c0 .556-.194 1.028-.583 1.417A1.929 1.929 0 0 1 11 13a1.929 1.929 0 0 1-1.417-.583A1.929 1.929 0 0 1 9 11c0-.556.194-1.028.583-1.417A1.929 1.929 0 0 1 11 9c.556 0 1.028.194 1.417.583.389.39.583.861.583 1.417zm6 4.37V19H9v-1.556l2.273-2.592 1.136 1.296L16.045 12 19 15.37zM7.321 7a.297.297 0 0 0-.226.104A.352.352 0 0 0 7 7.35v13.3c0 .095.032.177.095.246.064.07.14.104.226.104H20.68a.297.297 0 0 0 .226-.104.352.352 0 0 0 .095-.246V7.35a.352.352 0 0 0-.095-.246.297.297 0 0 0-.226-.104H7.32zM23 21.125c0 .516-.17.957-.512 1.324-.342.367-.753.551-1.232.551H6.744c-.48 0-.89-.184-1.232-.55A1.876 1.876 0 0 1 5 21.124V6.875c0-.516.17-.957.512-1.324C5.854 5.184 6.265 5 6.744 5h14.512c.48 0 .89.184 1.232.55.341.368.512.81.512 1.325v14.25z"/>
</svg>
