<svg xmlns="http://www.w3.org/2000/svg" width="28" height="28" viewBox="0 0 28 28">
    <path fill="#FFF" fill-rule="evenodd" d="M11 20.004V21c-.869-.088-1.587-.343-2.156-.765-.569-.422-.853-1.116-.853-2.082 0 0 0-2.155-.249-2.766-.272-.67-.883-.888-1.742-.98v-.835a2.62 2.62 0 0 0 1.742-.959c.37-.448.25-2.473.25-2.473 0-.918.198-1.645.596-2.181C8.986 7.422 9.79 7.102 11 7v1c-.786.105-2.004.245-2.004 2.011s.055 2.493-.152 2.866c-.347.628-.853 1.053-1.427 1.123.574.088 1.12.382 1.427 1.2.188.499.152 1.286.152 2.814 0 1.529 1.55 1.936 2.004 1.99zm6 0V21c.869-.088 1.587-.343 2.156-.765.569-.422.853-1.116.853-2.082 0 0 0-2.155.249-2.766.272-.67.883-.888 1.742-.98v-.835a2.62 2.62 0 0 1-1.742-.959c-.37-.448-.25-2.473-.25-2.473 0-.918-.198-1.645-.596-2.181C19.014 7.422 18.21 7.102 17 7v1c.786.105 2.004.245 2.004 2.011s-.055 2.493.152 2.866c.347.628.853 1.053 1.427 1.123-.574.088-1.12.382-1.427 1.2-.188.499-.152 1.286-.152 2.814 0 1.529-1.55 1.936-2.004 1.99z"/>
</svg>
