<svg xmlns="http://www.w3.org/2000/svg" width="28" height="28" viewBox="0 0 28 28">
    <path fill="#B7C9D3" fill-rule="evenodd" d="M20 20.154c0-.208.074-.389.223-.541a.712.712 0 0 1 .527-.228c.203 0 .379.076.527.228a.749.749 0 0 1 .223.54.749.749 0 0 1-.223.542.712.712 0 0 1-.527.228.712.712 0 0 1-.527-.228.749.749 0 0 1-.223-.541zM6.5 13.23c0-.409.152-.767.457-1.076.305-.308.652-.463 1.043-.463h4.125c0-.464-.187-1.103-.563-1.917C11.188 8.962 11 8.32 11 7.846c0-.785.125-1.366.375-1.743.25-.376.75-.565 1.5-.565.203.209.352.55.445 1.022.094.473.213.976.358 1.509.144.532.377.971.697 1.316a20.712 20.712 0 0 1 1.172 1.454 23.257 23.257 0 0 0 .773 1.004c.172.212.328.388.47.528.14.14.29.283.45.427.16.144.317.252.469.325a.985.985 0 0 0 .416.108h.375v7.692h-.375c-.102 0-.225.012-.37.036-.144.024-.273.05-.386.078a6.613 6.613 0 0 0-.445.132 18.037 18.037 0 0 0-.826.289c-.188.068-.301.11-.34.126-1.649.585-2.985.878-4.008.878h-1.418c-1.5 0-2.25-.67-2.25-2.008 0-.208.02-.432.059-.673-.235-.128-.42-.338-.557-.63a2.069 2.069 0 0 1-.205-.884c0-.297.07-.573.21-.83-.413-.4-.62-.877-.62-1.43 0-.2.039-.422.117-.667.078-.244.176-.435.293-.57-.25-.009-.46-.197-.627-.566-.168-.368-.252-.693-.252-.973zM5 13.219c0 .713.191 1.366.574 1.959a3.52 3.52 0 0 0 .34 2.56c-.023.168-.035.34-.035.517 0 .81.234 1.522.703 2.14-.008 1.113.324 1.992.996 2.637.672.645 1.559.968 2.66.968h1.512c.75 0 1.49-.09 2.22-.27.731-.18 1.577-.443 2.538-.788.906-.32 1.445-.48 1.617-.48H21.5c.414 0 .768-.15 1.06-.451.294-.3.44-.663.44-1.088v-7.692c0-.425-.146-.787-.44-1.088-.292-.3-.646-.45-1.06-.45h-3.21c-.282-.193-.817-.814-1.606-1.864a22.992 22.992 0 0 0-1.254-1.538c-.188-.2-.326-.543-.416-1.028-.09-.485-.21-.991-.358-1.52-.148-.53-.39-.962-.726-1.298A1.468 1.468 0 0 0 12.875 4c-.656 0-1.246.13-1.77.39-.523.261-.921.668-1.195 1.22-.273.553-.41 1.299-.41 2.236 0 .745.187 1.515.563 2.308H8c-.813 0-1.516.304-2.11.913-.593.61-.89 1.326-.89 2.152z"/>
</svg>
