<svg xmlns="http://www.w3.org/2000/svg" width="28" height="28" viewBox="0 0 28 28">
    <path fill="#FFF" fill-rule="evenodd" d="M17 11a2.89 2.89 0 0 0-.879-2.121A2.89 2.89 0 0 0 14 8a2.89 2.89 0 0 0-2.121.879A2.89 2.89 0 0 0 11 11c0 .828.293 1.535.879 2.121A2.89 2.89 0 0 0 14 14a2.89 2.89 0 0 0 2.121-.879A2.89 2.89 0 0 0 17 11zm3 0c0 .852-.129 1.55-.387 2.098l-4.265 9.07A1.505 1.505 0 0 1 14 23c-.281 0-.545-.074-.791-.223a1.35 1.35 0 0 1-.545-.609l-4.277-9.07C8.129 12.55 8 11.852 8 11c0-1.656.586-3.07 1.758-4.242C10.93 5.586 12.344 5 14 5c1.656 0 3.07.586 4.242 1.758C19.414 7.93 20 9.344 20 11z"/>
</svg>
