<svg xmlns="http://www.w3.org/2000/svg" width="28" height="28" viewBox="0 0 28 28">
    <path fill="#FFF" fill-rule="evenodd" d="M16 19v2a.964.964 0 0 1-.292.708A.964.964 0 0 1 15 22h-2a.964.964 0 0 1-.708-.292A.964.964 0 0 1 12 21v-2c0-.278.097-.514.292-.708A.964.964 0 0 1 13 18h2c.278 0 .514.097.708.292.195.194.292.43.292.708zm0-6v2a.964.964 0 0 1-.292.708A.964.964 0 0 1 15 16h-2a.964.964 0 0 1-.708-.292A.964.964 0 0 1 12 15v-2c0-.278.097-.514.292-.708A.964.964 0 0 1 13 12h2c.278 0 .514.097.708.292.195.194.292.43.292.708zm0-6v2a.964.964 0 0 1-.292.708A.964.964 0 0 1 15 10h-2a.964.964 0 0 1-.708-.292A.964.964 0 0 1 12 9V7c0-.278.097-.514.292-.708A.964.964 0 0 1 13 6h2c.278 0 .514.097.708.292.195.194.292.43.292.708z"/>
</svg>
