<svg xmlns="http://www.w3.org/2000/svg" width="48" height="48" viewBox="0 0 48 48">
    <path fill="#009CDE" fill-rule="evenodd" d="M40 35.983c0-.553-.448-1.002-1-1.002h-6c-.552 0-1 .449-1 1.002v4.006c0 .553.448 1.002 1 1.002h6c.552 0 1-.449 1-1.002v-4.006zm-6-4.69v1.685h4v-1.686c0-.957-.894-1.307-2-1.319-1.511.015-2 .558-2 1.32zm8 4.69v4.006a3.006 3.006 0 0 1-3 3.005h-6c-1.654 0-3-1.348-3-3.005v-4.006a3 3 0 0 1 2-2.82v-1.87c0-1.215.769-3.24 3.809-3.322H36c.022 0 .045-.002.067 0 2.545.062 3.933 1.382 3.933 3.321v1.87a3 3 0 0 1 2 2.82zM43.353 8.12L29.932 3.053a16.536 16.536 0 0 0-11.61 0L4.653 8.117A1 1 0 0 0 4 9.056v11.548c0 8.473 4.429 16.4 11.855 21.207l7.943 5.034a1.003 1.003 0 0 0 1.078-.005l2.944-1.905a1.003 1.003 0 0 0-1.086-1.683l-2.407 1.558-7.393-4.686C10.087 35.692 6 28.394 6 20.604V9.754L19.02 4.93c3.339-1.251 6.869-1.252 10.209-.001L42 9.75v10.854c0 2.67-.256 4.762-.805 6.584-.16.529.14 1.089.668 1.248a.995.995 0 0 0 1.246-.67c.608-2.014.891-4.29.891-7.162V9.056a1 1 0 0 0-.647-.936zM29.202 28.987c-.678-.25-1.667-.517-2.453-.721a1.002 1.002 0 0 1-.749-.97v-3.153a1 1 0 0 1 .7-.955c.031-.013 1.3-.51 1.3-2.829 0-.454.303-.838.717-.96a1.389 1.389 0 0 0 0-.602 1.002 1.002 0 0 1-.717-.96c0-.273.091-.496.271-.945.291-.722.897-2.02.648-3.02-.14-.557-1.294-.925-2.986-.925h-.002c-1.692 0-2.846.368-2.984.925-.13.518-.644.745-1.167.636-.304-.062-.46-.09-.493-.074-.059.122-.129.641.497 2.537.149.449.216.64.216.878a.993.993 0 0 1-.717.954 1.38 1.38 0 0 0 0 .6 1 1 0 0 1 .717.958c0 2.318 1.269 2.815 1.322 2.835.392.145.678.529.678.947v3.153c0 .425-.268.803-.667.946-.566.199-1.147.4-1.73.599-2.405.825-4.891 1.68-6.136 2.543a.997.997 0 0 1-1.392-.254 1.002 1.002 0 0 1 .253-1.393c1.473-1.023 3.976-1.88 6.626-2.79L22 26.585v-1.844c-.729-.485-1.79-1.552-1.973-3.718-.482-.383-.777-1.072-.777-1.925 0-.491.107-.965.304-1.336a1.95 1.95 0 0 1 .265-.386c-.416-1.271-.991-3.223.002-4.346.279-.315.756-.438 1.542-.459.879-1.338 2.904-1.628 4.568-1.628h.002c1.967 0 4.438.486 4.925 2.443.378 1.513-.232 3.102-.64 4.13.335.401.532.936.532 1.633 0 .854-.295 1.517-.777 1.9-.183 2.165-1.244 3.207-1.973 3.692v1.784c.835.226 1.424.409 1.896.584a1 1 0 0 1 .59 1.286.996.996 0 0 1-1.284.592z"/>
</svg>
