<svg xmlns="http://www.w3.org/2000/svg" width="94" height="80" viewBox="0 0 94 80">
    <g fill="none" fill-rule="evenodd" stroke="#D0006F" stroke-linecap="round" stroke-linejoin="round" stroke-width="2">
        <path d="M45 47L1 27v32l44 20zM93 27L45 47v32l48-20zM59 29c0 3.312-5.376 6-12 6-6.628 0-12-2.688-12-6s5.372-6 12-6c6.624 0 12 2.688 12 6zM59 7c0 3.312-5.376 6-12 6-6.628 0-12-2.688-12-6s5.372-6 12-6c6.624 0 12 2.688 12 6zM87 19c0 3.312-5.376 6-12 6-6.628 0-12-2.688-12-6s5.372-6 12-6c6.624 0 12 2.688 12 6zM33 19c0 3.312-5.376 6-12 6-6.628 0-12-2.688-12-6s5.372-6 12-6c6.624 0 12 2.688 12 6zM11.297 22.524L1 27M37.95 10.938l-8.62 3.748M65.777 15.164l-9.736-4.232M93 27l-9.2-4"/>
    </g>
</svg>
