<svg xmlns="http://www.w3.org/2000/svg" xmlns:xlink="http://www.w3.org/1999/xlink" width="48" height="48" viewBox="0 0 48 48">
    <defs>
        <path id="a" d="M0 31.99h45.815V0H0z"/>
    </defs>
    <g fill="none" fill-rule="evenodd" transform="translate(1 7)">
        <mask id="b" fill="#fff">
            <use xlink:href="#a"/>
        </mask>
        <path fill="#169BD7" d="M31.236 23.706a.999.999 0 1 0 1.43-1.398l-7.876-8.056c-.375-.384-1.055-.384-1.43 0l-7.875 8.056a.999.999 0 0 0 .715 1.699c.26 0 .546-.101.741-.301l3.06-3.102v10.384a1 1 0 1 0 2 0V18.559l2.1-2.177 1.9 1.969v12.64a1 1 0 1 0 2 0V20.396l3.235 3.31zm14.58-2.384c0 4.229-3.349 7.669-7.463 7.669H31a1 1 0 1 1 0-2h7.353c3.012 0 5.462-2.543 5.462-5.669 0-2.836-2.029-5.258-4.72-5.634a1 1 0 0 1-.863-1.01l.01-.177C38.246 7.575 32.802 2 26.112 2c-4.398 0-8.464 2.455-10.609 6.406a1.001 1.001 0 0 1-1.213.466 5.325 5.325 0 0 0-1.784-.312c-3.013 0-5.463 2.517-5.463 5.61 0 .185.01.368.027.549.046.5-.287.958-.777 1.068C3.805 16.343 2 18.671 2 21.323c0 3.125 2.45 5.668 5.462 5.668H17a1 1 0 1 1 0 2H7.462C3.347 28.991 0 25.551 0 21.323c0-3.287 2.077-6.212 5.044-7.256.053-4.149 3.38-7.507 7.462-7.507a7.26 7.26 0 0 1 1.645.19C16.734 2.567 21.246 0 26.112 0c7.615 0 13.843 6.179 14.124 13.883 3.235.866 5.58 3.918 5.58 7.439z" mask="url(#b)"/>
    </g>
</svg>
