<svg xmlns="http://www.w3.org/2000/svg" width="48" height="48" viewBox="0 0 48 48">
    <path fill="#009CDE" fill-rule="evenodd" d="M41.965 30.006l-1.48 1.49-3.81-3.835a.991.991 0 0 0-1.41 0 1.009 1.009 0 0 0 0 1.419l3.81 3.835-2.298 2.314-3.7-3.725a.993.993 0 0 0-1.41 0 1.007 1.007 0 0 0 0 1.419l3.7 3.724-2.316 2.333-3.81-3.836a.991.991 0 0 0-1.41 0 1.009 1.009 0 0 0 0 1.42l3.81 3.835-1.814 1.826c-.674.68-1.855.68-2.53 0l-2.117-2.132c.686-1.617.383-3.562-.925-4.88L12.997 23.882a4.36 4.36 0 0 0-3.112-1.299 4.34 4.34 0 0 0-1.867.434L5.15 19.929a.541.541 0 0 1 0-.762L19.06 5.164a.545.545 0 0 1 .757-.001l2.774 2.792-6.148 6.19a4.358 4.358 0 0 0 0 6.125 4.288 4.288 0 0 0 6.085 0l5.77-5.807a.546.546 0 0 1 .757 0l12.91 12.996c.338.34.524.792.524 1.273 0 .481-.186.934-.524 1.274zm-21.672 12.63c-.229.23-.532.357-.856.357-.323 0-.626-.126-.854-.356l-1.42-1.43 5.045-5.215.637.64c.94.946.94 2.483.001 3.428l-2.553 2.576zm-8.526-6.86L9.041 33.03l5.046-5.215 2.727 2.746-5.047 5.214zm1.41 1.418l5.045-5.215 2.577 2.593-5.047 5.215-2.575-2.593zm-7.552-9.322L8.181 25.3c.91-.917 2.496-.918 3.406 0l1.09 1.096-5.046 5.215-2.006-2.019a1.224 1.224 0 0 1 0-1.72zM28.184 5.164c.208-.21.549-.21.757-.001l13.91 14.004a.543.543 0 0 1 0 .762l-2.774 2.792-9.613-9.677a2.502 2.502 0 0 0-1.788-.746c-.676 0-1.31.264-1.788.746l-5.77 5.808a2.3 2.3 0 0 1-3.265 0 2.338 2.338 0 0 1 0-3.289l6.852-6.898h.001v-.001l3.478-3.5zM41.487 24.14l2.775-2.792a2.564 2.564 0 0 0 0-3.6L30.35 3.744a2.521 2.521 0 0 0-3.577 0L24 6.536l-2.774-2.792c-.952-.96-2.619-.962-3.576 0L3.74 17.748c-.477.48-.74 1.12-.74 1.8 0 .68.263 1.32.718 1.776l2.703 2.91-2.205 2.22a3.242 3.242 0 0 0 0 4.557l12.958 13.045c.604.609 1.408.944 2.263.944h.001a3.172 3.172 0 0 0 2.266-.946l2.293-2.313 1.89 1.902a3.746 3.746 0 0 0 2.676 1.116c1.01 0 1.96-.396 2.674-1.116l12.137-12.218a3.793 3.793 0 0 0 1.109-2.693 3.793 3.793 0 0 0-1.109-2.692l-1.887-1.9z"/>
</svg>
