<svg xmlns="http://www.w3.org/2000/svg" width="28" height="28" viewBox="0 0 28 28">
    <g fill="none" fill-rule="evenodd">
        <path fill="#B7C9D3" d="M16 5h-4v2.294a6.963 6.963 0 0 0-2.273 1.17L7.459 7 5 10.964l2.196 1.418A6.959 6.959 0 0 0 7 14c0 .558.072 1.098.196 1.618L5 17.036 7.459 21l2.268-1.464A6.963 6.963 0 0 0 12 20.706V23h4v-2.294a6.963 6.963 0 0 0 2.273-1.17L20.541 21 23 17.036l-2.196-1.418c.124-.52.196-1.06.196-1.618s-.072-1.098-.196-1.618L23 10.964 20.541 7l-2.268 1.464A6.963 6.963 0 0 0 16 7.294V5zm-1 1v2.039l.715.213c.7.209 1.355.546 1.947 1.003l.559.433.595-.384 1.412-.912 1.405 2.264-1.371.886-.594.383.163.687c.112.472.169.939.169 1.388 0 .449-.057.916-.169 1.388l-.163.687.594.383 1.371.886-1.405 2.264-1.412-.912-.595-.384-.559.433a5.964 5.964 0 0 1-1.947 1.003l-.715.213V22h-2v-2.039l-.715-.213a5.964 5.964 0 0 1-1.947-1.003l-.559-.433-.595.384-1.412.912-1.405-2.264 1.371-.886.594-.383-.163-.687A6.03 6.03 0 0 1 8 14c0-.449.057-.916.169-1.388l.163-.687-.594-.383-1.371-.886 1.405-2.264 1.412.912.595.384.559-.433a5.974 5.974 0 0 1 1.947-1.003L13 8.039V6h2z"/>
        <path stroke="#B7C9D3" d="M11 14l2 2 4-4"/>
    </g>
</svg>
