<svg xmlns="http://www.w3.org/2000/svg" width="28" height="28" viewBox="0 0 28 28">
    <path fill="#FFF" fill-rule="evenodd" d="M23 15.4c0 .042-.004.07-.012.088-.508 2.233-1.572 4.043-3.193 5.43C18.175 22.307 16.277 23 14.101 23a8.56 8.56 0 0 1-3.365-.688 9.058 9.058 0 0 1-2.9-1.962l-1.538 1.612a.716.716 0 0 1-.536.238.716.716 0 0 1-.536-.238A.788.788 0 0 1 5 21.4v-5.6c0-.217.075-.404.226-.563A.716.716 0 0 1 5.762 15H11.1c.207 0 .385.08.536.238.151.158.227.345.227.562a.788.788 0 0 1-.227.563l-1.632 1.712c.564.55 1.203.975 1.918 1.275a5.7 5.7 0 0 0 2.228.45c1.064 0 2.057-.27 2.978-.813a6.146 6.146 0 0 0 2.216-2.237c.087-.142.298-.63.631-1.463.064-.191.183-.287.358-.287h2.287c.103 0 .192.04.268.119.075.079.113.173.113.281zm0-8.8v5.6a.79.79 0 0 1-.225.563.711.711 0 0 1-.534.237H16.93a.711.711 0 0 1-.534-.238.79.79 0 0 1-.225-.562.79.79 0 0 1 .225-.563l1.637-1.725c-1.17-1.141-2.55-1.712-4.139-1.712-1.059 0-2.047.27-2.964.813a6.132 6.132 0 0 0-2.206 2.237c-.087.142-.296.63-.628 1.463-.063.191-.182.287-.356.287H5.38a.356.356 0 0 1-.266-.119A.395.395 0 0 1 5 12.6v-.088c.514-2.233 1.581-4.043 3.202-5.43C9.822 5.693 11.719 5 13.893 5c1.154 0 2.277.231 3.368.694a9.143 9.143 0 0 1 2.905 1.956l1.542-1.613a.711.711 0 0 1 .533-.237c.206 0 .384.08.534.237A.79.79 0 0 1 23 6.6z"/>
</svg>
