<svg xmlns="http://www.w3.org/2000/svg" width="48" height="48" viewBox="0 0 48 48">
    <path fill="#009CDE" fill-rule="evenodd" d="M32 27h2v-2h-2v2zm3-4h-4a1 1 0 0 0-1 1v4a1 1 0 0 0 1 1h4a1 1 0 0 0 1-1v-4a1 1 0 0 0-1-1zM23 36h2v-2h-2v2zm3-4h-4a1 1 0 0 0-1 1v4a1 1 0 0 0 1 1h4a1 1 0 0 0 1-1v-4a1 1 0 0 0-1-1zm-12 4h2v-2h-2v2zm3-4h-4a1 1 0 0 0-1 1v4a1 1 0 0 0 1 1h4a1 1 0 0 0 1-1v-4a1 1 0 0 0-1-1zm6-5h2v-2h-2v2zm3-4h-4a1 1 0 0 0-1 1v4a1 1 0 0 0 1 1h4a1 1 0 0 0 1-1v-4a1 1 0 0 0-1-1zm-12 4h2v-2h-2v2zm3-4h-4a1 1 0 0 0-1 1v4a1 1 0 0 0 1 1h4a1 1 0 0 0 1-1v-4a1 1 0 0 0-1-1zm15-5h2v-2h-2v2zm3-4h-4a1 1 0 0 0-1 1v4a1 1 0 0 0 1 1h4a1 1 0 0 0 1-1v-4a1 1 0 0 0-1-1zm-12 4h2v-2h-2v2zm3-4h-4a1 1 0 0 0-1 1v4a1 1 0 0 0 1 1h4a1 1 0 0 0 1-1v-4a1 1 0 0 0-1-1zm-12 4h2v-2h-2v2zm3-4h-4a1 1 0 0 0-1 1v4a1 1 0 0 0 1 1h4a1 1 0 0 0 1-1v-4a1 1 0 0 0-1-1zm24 27a1 1 0 0 1-1 1H8a1 1 0 0 1-1-1V11a1 1 0 0 1 1-1h32a1 1 0 0 1 1 1v30zM40 8h-3V5a1 1 0 1 0-2 0v3h-4V5a1 1 0 1 0-2 0v3h-4V5a1 1 0 1 0-2 0v3h-4V5a1 1 0 1 0-2 0v3h-4V5a1 1 0 1 0-2 0v3H8c-1.654 0-3 1.346-3 3v30c0 1.654 1.346 3 3 3h32c1.654 0 3-1.346 3-3V11c0-1.654-1.346-3-3-3z"/>
</svg>
