<svg xmlns="http://www.w3.org/2000/svg" width="28" height="28" viewBox="0 0 28 28">
    <path fill="#FFF" fill-rule="evenodd" d="M20.23 16.946v2.866c0 .879-.304 1.63-.913 2.253-.61.623-1.343.935-2.202.935h-9c-.858 0-1.592-.312-2.2-.935A3.106 3.106 0 0 1 5 19.812v-9.208c0-.878.305-1.629.914-2.252.61-.624 1.343-.935 2.201-.935h2.759c.094 0 .175.035.243.105.069.07.103.153.103.249 0 .2-.094.317-.281.354a7.151 7.151 0 0 0-1.439.664.49.49 0 0 1-.173.044H8.115c-.476 0-.883.174-1.222.52a1.725 1.725 0 0 0-.508 1.251v9.209c0 .486.17.903.508 1.25.339.347.746.52 1.222.52h9c.476 0 .884-.173 1.223-.52.339-.347.508-.764.508-1.25v-2.369a.35.35 0 0 1 .195-.321 2.28 2.28 0 0 0 .584-.41c.115-.118.242-.147.379-.088.151.066.227.173.227.321zm2.564-5.49l-4.153 4.25a.636.636 0 0 1-.487.21.737.737 0 0 1-.27-.055.662.662 0 0 1-.422-.653v-2.125H15.73c-2.33 0-3.909.484-4.738 1.45-.858 1.011-1.125 2.756-.8 5.235.02.17-.051.295-.217.377a.58.58 0 0 1-.13.022.336.336 0 0 1-.281-.144 9.079 9.079 0 0 1-.227-.343c-.08-.126-.222-.378-.428-.758-.205-.38-.384-.748-.535-1.102a8.943 8.943 0 0 1-.416-1.261 5.41 5.41 0 0 1-.19-1.35c0-.362.013-.698.038-1.008a7.82 7.82 0 0 1 .152-.996c.075-.354.176-.679.302-.974.127-.295.296-.596.509-.902.213-.306.46-.58.74-.819a5.75 5.75 0 0 1 1.023-.68c.4-.215.85-.393 1.347-.537a11.259 11.259 0 0 1 1.725-.338 17.276 17.276 0 0 1 2.126-.122h1.73V6.708c0-.31.141-.527.422-.653a.737.737 0 0 1 .27-.055c.188 0 .35.07.488.21l4.153 4.25c.137.14.206.306.206.498a.689.689 0 0 1-.206.498z"/>
</svg>
