<svg xmlns="http://www.w3.org/2000/svg" width="48" height="48" viewBox="0 0 48 48">
    <path fill="#009CDE" fill-rule="evenodd" d="M47 28a1 1 0 0 0-1 1v5c0 1.767-1.097 3-2.667 3h-38C3.589 37 2 35.57 2 34v-5a1 1 0 1 0-2 0v5c0 2.663 2.492 5 5.333 5h38C45.993 39 48 36.851 48 34v-5a1 1 0 0 0-1-1M12 18a1 1 0 0 0 1-1v-2.5c0-1.624 1.687-2.5 3.274-2.5h3.945C21.805 12 23 13.29 23 15v2a1 1 0 1 0 2 0v-2.5c0-1.624 1.717-2.5 3.333-2.5h4c.996 0 2.667.325 2.667 2.5V17a1 1 0 1 0 2 0v-2.5c0-2.733-1.832-4.5-4.667-4.5h-4c-1.649 0-3.362.645-4.388 1.869C23.076 10.732 21.75 10 20.219 10h-3.945C13.718 10 11 11.577 11 14.5V17a1 1 0 0 0 1 1M5 32v-6.5c0-2.923 2.718-4.5 5.274-4.5h3.945c1.578 0 2.942.774 3.807 1.973.971-1.19 2.534-1.973 4.307-1.973h4c1.653 0 3.022.772 3.842 2.013A5.446 5.446 0 0 1 34.392 21h4.056C41.256 21 43 22.725 43 25.5V32a1 1 0 1 1-2 0v-6.5c0-1.659-.858-2.5-2.552-2.5h-4.056c-1.763 0-3.309 1.402-3.309 3 0 .141-.03.274-.083.396V32a1 1 0 1 1-2 0v-6.125C29 24.155 27.928 23 26.333 23h-4C20.73 23 19 24.052 19 25.75V32a1 1 0 1 1-2 0v-6c0-1.71-1.195-3-2.781-3h-3.945C8.687 23 7 23.876 7 25.5V32a1 1 0 1 1-2 0"/>
</svg>
