<svg xmlns="http://www.w3.org/2000/svg" width="27" height="27" viewBox="0 0 27 27">
    <g fill="none" fill-rule="evenodd" stroke="#009CDE" stroke-linejoin="round" stroke-width="2">
        <path d="M11.417 16.625s-1.563-.52-1.563-3.125c-.86 0-.86-2.083 0-2.083 0-.35-1.562-4.167 1.042-3.646.52-2.083 6.25-2.083 6.77 0 .362 1.446-.52 3.39-.52 3.646.86 0 .86 2.083 0 2.083 0 2.604-1.563 3.125-1.563 3.125v2.604c2.58.968 5.136 1.768 6.444 2.682A11.94 11.94 0 0 0 25.48 13.5c0-6.617-5.362-11.98-11.979-11.98-6.617 0-11.98 5.363-11.98 11.98 0 3.284 1.324 6.26 3.464 8.424 1.386-.958 4.117-1.819 6.433-2.695v-2.604z"/>
        <path d="M4.985 21.924a11.942 11.942 0 0 0 8.515 3.555c3.337 0 6.353-1.365 8.526-3.568"/>
    </g>
</svg>
