<svg xmlns="http://www.w3.org/2000/svg" width="48" height="48" viewBox="0 0 48 48">
    <path fill="#009CDE" fill-rule="evenodd" d="M9.31 40.34c2.057-1.127 5.064-2.222 8-3.285 1.03-.374 2.056-.746 3.043-1.12A1 1 0 0 0 21 35v-5a1 1 0 0 0-.684-.948C20.293 29.044 18 28.162 18 24c0-.552-.413-.988-.965-.988-.093-.063-.274-.435-.274-1.012 0-.576.181-.948.24-1a1 1 0 0 0 1-1c0-.25-.075-.512-.237-1.09-.275-.977-1.11-3.954-.348-4.776.276-.3.91-.25 1.388-.153a1.001 1.001 0 0 0 1.166-.738c.325-1.3 2.651-2.243 5.53-2.243 2.88 0 5.205.944 5.53 2.243.458 1.834-.355 4.376-.747 5.597-.194.609-.283.886-.283 1.16 0 .553.413.989.965.989.092.063.274.435.274 1.01 0 .578-.182.95-.239 1a1 1 0 0 0-1 1c0 4.144-2.237 5.023-2.317 5.053A1 1 0 0 0 27 30v5c0 .417.26.79.648.937 1.09.408 2.176.8 3.236 1.184 3.016 1.09 5.88 2.132 7.83 3.195C34.666 43.976 29.5 46 24 46c-5.486 0-10.644-2.014-14.69-5.66M2 24C2 11.869 11.87 2 24 2c12.131 0 22 9.869 22 22a21.862 21.862 0 0 1-5.782 14.862c-2.092-1.25-5.162-2.36-8.654-3.622A359.39 359.39 0 0 1 29 34.306V30.61c1.002-.617 2.767-2.215 2.98-5.87.772-.452 1.26-1.455 1.26-2.74 0-1.157-.396-2.086-1.04-2.59.485-1.512 1.362-4.286.77-6.652C32.276 9.984 28.513 9 25.5 9c-2.684 0-5.964.78-7.138 2.912-1.033-.053-1.835.237-2.414.862-1.506 1.626-.623 4.847-.126 6.62-.657.498-1.06 1.435-1.06 2.606 0 1.285.486 2.288 1.258 2.74.212 3.655 1.978 5.253 2.98 5.87v3.697c-.778.29-1.573.578-2.37.867-3.25 1.177-6.597 2.39-8.825 3.715A21.859 21.859 0 0 1 2 23.999m46 0C48 10.767 37.233 0 24 0 10.766 0 0 10.767 0 24a23.86 23.86 0 0 0 6.94 16.878C11.484 45.472 17.543 48 24 48c6.467 0 12.531-2.536 17.076-7.142.003-.003.006-.003.008-.006A23.854 23.854 0 0 0 48 24"/>
</svg>
