<svg xmlns="http://www.w3.org/2000/svg" width="28" height="28" viewBox="0 0 28 28">
    <g fill="#B7C9D3" fill-rule="evenodd">
        <path d="M6 9V6.999C6 6.447 6.449 6 7.007 6h13.986A1 1 0 0 1 22 6.999V9h-.958V6.975H7.007V9H6zM6 19v2.001c0 .552.449.999 1.007.999h13.986A1 1 0 0 0 22 21.001V19h-.958v2.025H7.007V19H6zM3 11h2l1.51 2.153L8 11h2l-2 3.036L10 17H8l-1.532-2.257L5 17H3l2-2.964L3 11zm8.046 0h1.922l1.526 2.9h-.026l1.5-2.9h2v6h-2v-3.426l-1 1.716h-1l-1-1.716V17h-1.922v-6zM20 11h2v5.02h3V17h-5v-6z"/>
    </g>
</svg>
