<svg xmlns="http://www.w3.org/2000/svg" width="100" height="100" viewBox="0 0 100 100">
    <g fill="#FFF" fill-rule="evenodd">
        <path d="M0 0v2.328L2.328 0zM96.672 0L0 96.672V100h2.328L100 2.328V0zM81.599 0L0 81.598v5.656L87.255 0zM67.62 0L0 67.62v5.656L73.276 0zM53.734 0L.002 53.735v5.656L59.39.001zM39.772 0L0 39.772v5.656L45.429 0zM25.656 0L0 25.655v5.657L31.312 0zM11.75 0L0 11.75v5.656L17.407 0zM81.579 100h5.656L100 87.235v-5.656zM67.612 100h5.656L100 73.268v-5.656zM53.662 100h5.656L100 59.318v-5.656zM39.694 100h5.656L100 45.351v-5.656zM25.589 100h5.656L100 31.244v-5.656zM11.642 100h5.657l82.7-82.702v-5.656zM96.672 100H100v-3.328z"/>
    </g>
</svg>
