<svg xmlns="http://www.w3.org/2000/svg" xmlns:xlink="http://www.w3.org/1999/xlink" width="196" height="54" viewBox="0 0 196 54">
    <defs>
        <path id="a" d="M97.408 54H.024V.189h194.769V54H97.408z"/>
    </defs>
    <g fill="none" fill-rule="evenodd">
        <g>
            <mask id="b" fill="#fff">
                <use xlink:href="#a"/>
            </mask>
            <path fill="#FFF" d="M194.533 22.655c0-12.12-6.242-17.332-18.272-17.332L35.835 5.208l-1.169-1.126-1.13-1.14-1.349 1.392-4.329 4.36a2.432 2.432 0 0 1-.596-2.827l.67-1.463-7.118-3.307-1.797-.908-2.33 5.005C4.726 5.242.8 15.267.8 27.358v.262c0 11.983 3.728 21.937 15.44 22.159C17.998 52.327 20.92 54 24.227 54c3.278 0 6.18-1.646 7.94-4.158l144.086.485c12.03 0 18.54-4.403 18.54-16.523l-.259-11.149" mask="url(#b)"/>
            <path fill="#2790C3" d="M15.49 49.027C7.991 48.563 2 42.348 2 34.68V20.713C2 12.808 8.368 6.37 16.192 6.27l.983-2.018h-.766C7.398 4.252 0 11.635 0 20.713v13.968c0 9.079 7.398 16.317 16.41 16.317h.822l-1.743-1.971" mask="url(#b)"/>
        </g>
        <path fill="#1B1A18" d="M6.346 32.704l.104.048-.087-.086-.017.038M6.346 32.647l.017.018.03-.066-.047.048M19.239 35.27c.023.048.037.098.057.146l.07-.04c-.042-.035-.084-.072-.127-.106"/>
        <path fill="#3A3B39" d="M11.593 27.361l9.795-21.4 1.513.703c-.074 2.397 1.161 4.727 3.325 5.954L11.593 27.361zm30.105-8.785a4.595 4.595 0 0 1-3.272-1.365 4.687 4.687 0 0 1 0-6.592l-5.108-5.146-5.174 5.214a3.934 3.934 0 0 1-.38-.152c-2.004-.931-2.88-3.323-1.955-5.343L20.144 2.56 6.394 32.6l-.03.066 5.089 5.127a4.595 4.595 0 0 1 5.655-.694 10.117 10.117 0 0 1 2.188-1.682c-.02-.048-.034-.099-.057-.147a7.241 7.241 0 0 0-4.515-1.571c-.53 0-1.05.06-1.556.169a7.247 7.247 0 0 0-1.352.432l-1.64-1.653L33.318 9.332l1.64 1.653a7.425 7.425 0 0 0-.596 2.93c0 .36.034.713.084 1.062a7.383 7.383 0 0 0 2.065 4.164 7.26 7.26 0 0 0 5.187 2.164 7.277 7.277 0 0 0 2.908-.6l1.64 1.652-14.771 14.882a10.131 10.131 0 0 1 1.607 2.239l16.995-17.121-5.107-5.146a4.596 4.596 0 0 1-3.272 1.365z"/>
        <path fill="#2790C3" d="M31.956 40.657a8.521 8.521 0 0 0-.692-1.253 8.55 8.55 0 0 0-.868-1.075 8.441 8.441 0 0 0-6.17-2.685 8.4 8.4 0 0 0-3.726.875 8.437 8.437 0 0 0-.92.522c-.09.059-.177.121-.264.183a8.584 8.584 0 0 0-1.05.88 8.571 8.571 0 0 0-2.544 6.107c0 4.732 3.807 8.567 8.504 8.567 4.696 0 8.503-3.835 8.503-8.567 0-1.27-.281-2.47-.773-3.554"/>
        <path fill="#FFF" d="M23.282 49.362l-4.438-4.48 1.922-1.945 2.512 2.548 5.318-5.367 1.926 1.94-7.24 7.304"/>
        <path fill="#3A3B39" d="M135.655 26.724c2.31 0 3.021-1.6 3.504-3.526h-1.08c-1.5 0-3.983.255-3.983 2.273 0 .832.785 1.253 1.559 1.253m3.021.162h-.045c-1.059 1.344-2.118 2.108-3.822 2.108-2.146 0-3.663-1.204-3.663-3.408 0-3.949 4.374-4.25 7.28-4.25h1.08c.096-.326.096-.673.096-1.023 0-1.203-1.296-1.55-2.373-1.55-1.366 0-2.674.347-3.897.922l.436-2.478c1.314-.463 2.652-.72 4.033-.72 2.376 0 4.605.883 4.605 3.688 0 1.605-1.174 6.291-1.447 8.545h-2.604l.321-1.834M58.653 16.752h2.228l.531-2.456 3.318-1.093-.757 3.55h2.76l-.481 2.274h-2.77l-1.125 5.223c-.071.28-.138.695-.138 1.163 0 .719.484 1.159 1.179 1.159.548 0 1.104-.117 1.492-.273l-.526 2.405c-.535.12-1.132.278-1.66.278-2.094 0-3.572-.825-3.572-3.128 0-.927.186-1.832.392-2.785l.875-4.042h-2.24l.494-2.275M69.134 11.6h3.082l-.642 2.974h-3.09l.65-2.973zm-1.132 5.152h3.082l-2.527 11.952h-3.09l2.535-11.952zM80.418 19.493c-.604-.392-1.413-.604-2.264-.604-2.465 0-3.85 2.324-3.85 4.572 0 1.555.514 3.112 2.632 3.112.756 0 1.701-.21 2.509-.606l-.344 2.464c-.947.462-1.96.551-2.971.551-3.067 0-5.048-2.06-5.048-5.147 0-4.18 2.74-7.358 7-7.358 1.15 0 2.26.203 3.093.466l-.757 2.55M83.795 11.305h3.09l-2.052 9.792h.05l4.303-4.344h4.01l-5.69 5.456 3.57 6.495h-3.474l-3.07-6.332h-.042l-1.335 6.332h-3.017l3.657-17.399M104.328 16.752h2.232l.531-2.456 3.318-1.093-.763 3.55h2.767l-.479 2.274h-2.772l-1.13 5.223c-.064.28-.135.695-.135 1.163 0 .719.483 1.159 1.175 1.159.549 0 1.102-.117 1.494-.273l-.53 2.405c-.526.12-1.127.278-1.656.278-2.096 0-3.57-.825-3.57-3.128 0-.927.184-1.832.39-2.785l.878-4.042h-2.24l.49-2.275"/>
        <path fill="#3A3B39" d="M103.292 21.025c0-3.043-1.93-4.548-4.86-4.548-3.892 0-6.753 3.575-6.753 7.288 0 3.552 2.302 5.217 5.716 5.217 1.267 0 2.579-.298 3.774-.667l.395-2.461c-1.153.536-2.373.856-3.64.856-1.974 0-3.124-.703-3.278-2.584h-.003c0-.108-.016-.217-.016-.331v-.108h.01a6.24 6.24 0 0 1 .5-2.36c.591-1.526 1.43-2.573 3.249-2.573 1.289 0 1.956.717 1.956 1.992 0 .279-.022.534-.066.815h-4.224c-.279.937-.324 1.564-.33 2.126h7.27c.183-.876.3-1.757.3-2.662M113.747 18.077c.086-.467.179-.946.25-1.325h2.88l-.277 1.602h.045c.833-1.223 2.187-1.877 3.642-1.877 1.403 0 2.857.835 3.016 2.277h.046c.78-1.558 2.511-2.277 4.169-2.277 1.776 0 3.298 1.463 3.298 3.275 0 1.063-.273 2.27-.529 3.244l-1.244 5.709h-3.09l1.243-5.823c.16-.722.39-1.832.39-2.551 0-.886-.663-1.442-1.448-1.442-2.14 0-2.672 2.506-3.065 4.134l-1.22 5.682h-3.085l1.237-5.823c.167-.722.396-1.832.396-2.551 0-.886-.67-1.442-1.451-1.442-2.092 0-2.676 2.528-3.065 4.134l-1.219 5.682h-3.09l2.171-10.628M151.58 19.19c-.334-.181-1.186-.436-2.064-.436-.916 0-2.064.255-2.064 1.202 0 1.51 4.008 2.066 4.008 4.99 0 3.11-2.702 4.037-5.357 4.037-1.232 0-2.484-.18-3.609-.716l.666-2.484c.875.49 1.748.927 2.943.927 1.042 0 2.127-.346 2.127-1.318 0-1.931-4.012-2.114-4.012-5.106 0-2.813 2.696-3.808 5.147-3.808 1.123 0 2.277.203 2.885.37l-.67 2.342M153.552 16.752h2.239l.525-2.456 3.317-1.093-.76 3.55h2.767l-.486 2.274h-2.771l-1.121 5.223c-.074.28-.142.695-.142 1.163 0 .719.49 1.159 1.18 1.159.547 0 1.102-.117 1.494-.273l-.526 2.405c-.538.12-1.134.278-1.658.278-2.098 0-3.571-.825-3.571-3.128 0-.927.182-1.832.383-2.785l.877-4.042h-2.231l.484-2.275M174.482 18.354c.097-.511.186-1.042.275-1.601h2.948l-.418 2.256h.055c.548-1.304 2.07-2.532 3.498-2.532.395 0 .806.024 1.17.113l-.643 3.043a3.81 3.81 0 0 0-1.171-.187c-2.188 0-3.25 1.97-3.646 3.9l-1.098 5.359h-3.093l2.123-10.351M172.34 21.025c0-3.043-1.936-4.548-4.862-4.548-3.895 0-6.75 3.575-6.75 7.288 0 3.552 2.308 5.217 5.712 5.217 1.266 0 2.581-.298 3.78-.667l.385-2.461c-1.144.536-2.365.856-3.633.856-1.982 0-3.129-.703-3.273-2.584h-.006a4.253 4.253 0 0 1-.016-.331c0-.021.003-.041.003-.067v-.04c.013-.81.19-1.617.506-2.362.586-1.525 1.424-2.572 3.248-2.572 1.292 0 1.958.717 1.958 1.992 0 .279-.03.534-.073.815h-4.216c-.283.937-.33 1.564-.334 2.126h7.272a12.76 12.76 0 0 0 .298-2.662M185.87 18.513h.6c.394 0 .648-.088.648-.493 0-.358-.314-.464-.647-.464h-.602v.957zm-.516-1.361h1.2c.726 0 1.07.292 1.07.886 0 .507-.315.873-.802.873l.89 1.387h-.54l-.878-1.387h-.425v1.387h-.515v-3.146zm1.034 3.863c1.222 0 2.15-.991 2.15-2.284 0-1.287-.928-2.286-2.15-2.286-1.243 0-2.168.999-2.168 2.286 0 1.293.925 2.284 2.168 2.284zm-.012-4.965a2.684 2.684 0 0 1 0 5.367c-1.47 0-2.665-1.2-2.665-2.686a2.673 2.673 0 0 1 2.665-2.68z"/>
        <path fill="#2790C3" d="M179.59 4.252H34.843l2.098 2.015h142.65c7.91 0 14.41 6.478 14.41 14.446v13.968c0 7.968-6.5 14.302-14.41 14.302H33.05l-1.921 2.015h148.463c9.011 0 16.409-7.238 16.409-16.317V20.713c0-9.078-7.398-16.46-16.41-16.46"/>
        <path fill="#238EC2" d="M60.028 42.274h.937c.923 0 2.045-.229 2.045-1.388 0-1.301-1.051-1.501-2.045-1.501h-.937v2.889zm0-4.377h.81c.837 0 1.873-.186 1.873-1.216 0-1.159-1.008-1.245-1.917-1.245h-.766v2.46zm-1.988-4.034h3.464c1.278 0 3.195.372 3.195 2.56 0 1.188-.795 2.017-1.973 2.232v.028c1.348.13 2.271 1.045 2.271 2.275 0 2.518-2.243 2.89-3.493 2.89H58.04v-9.985z"/>
        <path stroke="#238EC2" stroke-width=".5" d="M60.028 42.274h.937c.923 0 2.045-.229 2.045-1.388 0-1.301-1.051-1.501-2.045-1.501h-.937v2.889zm0-4.377h.81c.837 0 1.873-.186 1.873-1.216 0-1.159-1.008-1.245-1.917-1.245h-.766v2.46zm-1.988-4.034h3.464c1.278 0 3.195.372 3.195 2.56 0 1.188-.795 2.017-1.973 2.232v.028c1.348.13 2.271 1.045 2.271 2.275 0 2.518-2.243 2.89-3.493 2.89H58.04v-9.985z"/>
        <path fill="#238EC2" d="M66.544 43.848h1.988v-9.985h-1.988z"/>
        <path stroke="#238EC2" stroke-width=".5" d="M66.544 43.848h1.988v-9.985h-1.988z"/>
        <path fill="#238EC2" d="M70.377 33.863h1.988v8.41h3.848v1.575h-5.836v-9.985"/>
        <path stroke="#238EC2" stroke-width=".5" d="M70.377 33.863h1.988v8.41h3.848v1.575h-5.836z"/>
        <path fill="#238EC2" d="M77.876 33.863h1.988v8.41h3.848v1.575h-5.836v-9.985"/>
        <path stroke="#238EC2" stroke-width=".5" d="M77.876 33.863h1.988v8.41h3.848v1.575h-5.836z"/>
        <path fill="#238EC2" d="M85.374 33.863h5.85v1.573h-3.862v2.46h3.536v1.574h-3.536v2.804h3.89v1.574h-5.878v-9.985"/>
        <path stroke="#238EC2" stroke-width=".5" d="M85.374 33.863h5.85v1.573h-3.862v2.46h3.536v1.574h-3.536v2.804h3.89v1.574h-5.878z"/>
        <path fill="#238EC2" d="M95.64 35.436H92.8v-1.573h7.667v1.573h-2.84v8.412H95.64v-8.412"/>
        <path stroke="#238EC2" stroke-width=".5" d="M95.64 35.436H92.8v-1.573h7.667v1.573h-2.84v8.412H95.64z"/>
        <path fill="#238EC2" d="M107.054 35.694a5.098 5.098 0 0 0-2.016-.43c-.682 0-1.562.301-1.562 1.388 0 1.731 4.345 1.002 4.345 4.349 0 2.189-1.718 3.018-3.72 3.018-1.08 0-1.562-.143-2.542-.386l.185-1.802c.682.372 1.462.615 2.244.615.752 0 1.76-.386 1.76-1.288 0-1.902-4.345-1.115-4.345-4.42 0-2.231 1.718-3.047 3.465-3.047.851 0 1.647.115 2.37.358l-.184 1.645"/>
        <path stroke="#238EC2" stroke-width=".5" d="M107.054 35.694a5.098 5.098 0 0 0-2.016-.43c-.682 0-1.562.301-1.562 1.388 0 1.731 4.345 1.002 4.345 4.349 0 2.189-1.718 3.018-3.72 3.018-1.08 0-1.562-.143-2.542-.386l.185-1.802c.682.372 1.462.615 2.244.615.752 0 1.76-.386 1.76-1.288 0-1.902-4.345-1.115-4.345-4.42 0-2.231 1.718-3.047 3.465-3.047.851 0 1.647.115 2.37.358l-.184 1.645z"/>
        <path fill="#238EC2" d="M120.783 43.705c-.724.171-1.505.314-2.257.314-3.21 0-5.438-1.616-5.438-4.992 0-3.419 2.073-5.336 5.438-5.336.653 0 1.519.13 2.243.415l-.142 1.688c-.753-.429-1.434-.53-2.144-.53-2.045 0-3.322 1.574-3.322 3.62 0 2.031 1.249 3.562 3.365 3.562.78 0 1.704-.172 2.172-.415l.085 1.674"/>
        <path stroke="#238EC2" stroke-width=".5" d="M120.783 43.705c-.724.171-1.505.314-2.257.314-3.21 0-5.438-1.616-5.438-4.992 0-3.419 2.073-5.336 5.438-5.336.653 0 1.519.13 2.243.415l-.142 1.688c-.753-.429-1.434-.53-2.144-.53-2.045 0-3.322 1.574-3.322 3.62 0 2.031 1.249 3.562 3.365 3.562.78 0 1.704-.172 2.172-.415l.085 1.674z"/>
        <path fill="#238EC2" d="M122.644 33.863h5.85v1.573h-3.862v2.46h3.536v1.574h-3.536v2.804h3.891v1.574h-5.879v-9.985"/>
        <path stroke="#238EC2" stroke-width=".5" d="M122.644 33.863h5.85v1.573h-3.862v2.46h3.536v1.574h-3.536v2.804h3.891v1.574h-5.879z"/>
        <path fill="#238EC2" d="M132.472 38.126h.653c.98 0 2.101-.143 2.101-1.388 0-1.201-1.107-1.302-2.101-1.302h-.653v2.69zm-1.988-4.263h2.144c2.13 0 4.671-.071 4.671 2.704 0 1.173-.78 2.145-2.044 2.317v.029c.54.042.851.586 1.05 1.03l1.59 3.905h-2.215l-1.192-3.12c-.284-.743-.54-1.03-1.378-1.03h-.638v4.15h-1.988v-9.985z"/>
        <path stroke="#238EC2" stroke-width=".5" d="M132.472 38.126h.653c.98 0 2.101-.143 2.101-1.388 0-1.201-1.107-1.302-2.101-1.302h-.653v2.69zm-1.988-4.263h2.144c2.13 0 4.671-.071 4.671 2.704 0 1.173-.78 2.145-2.044 2.317v.029c.54.042.851.586 1.05 1.03l1.59 3.905h-2.215l-1.192-3.12c-.284-.743-.54-1.03-1.378-1.03h-.638v4.15h-1.988v-9.985z"/>
        <path fill="#238EC2" d="M141.276 35.436h-2.84v-1.573h7.668v1.573h-2.84v8.412h-1.988v-8.412"/>
        <path stroke="#238EC2" stroke-width=".5" d="M141.276 35.436h-2.84v-1.573h7.668v1.573h-2.84v8.412h-1.988z"/>
        <path fill="#238EC2" d="M147.48 43.848h1.988v-9.985h-1.988z"/>
        <path stroke="#238EC2" stroke-width=".5" d="M147.48 43.848h1.988v-9.985h-1.988z"/>
        <path fill="#238EC2" d="M151.314 33.863h5.509v1.573H153.3v2.46h3.351v1.574h-3.35v4.378h-1.988v-9.985"/>
        <path stroke="#238EC2" stroke-width=".5" d="M151.314 33.863h5.509v1.573H153.3v2.46h3.351v1.574h-3.35v4.378h-1.988z"/>
        <path fill="#238EC2" d="M158.526 43.848h1.988v-9.985h-1.988z"/>
        <path stroke="#238EC2" stroke-width=".5" d="M158.526 43.848h1.988v-9.985h-1.988z"/>
        <path fill="#238EC2" d="M165.286 31.13h1.946l-1.946 2.09h-1.178l1.178-2.09zm-2.81 2.733h5.85v1.573h-3.863v2.46h3.536v1.574h-3.536v2.804h3.89v1.574h-5.878v-9.985z"/>
        <path stroke="#238EC2" stroke-width=".5" d="M165.286 31.13h1.946l-1.946 2.09h-1.178l1.178-2.09zm-2.81 2.733h5.85v1.573h-3.863v2.46h3.536v1.574h-3.536v2.804h3.89v1.574h-5.878v-9.985z"/>
        <path fill="#238EC2" d="M175.41 35.694a5.098 5.098 0 0 0-2.017-.43c-.681 0-1.562.301-1.562 1.388 0 1.731 4.345 1.002 4.345 4.349 0 2.189-1.718 3.018-3.72 3.018-1.08 0-1.562-.143-2.542-.386l.185-1.802c.682.372 1.463.615 2.244.615.752 0 1.76-.386 1.76-1.288 0-1.902-4.345-1.115-4.345-4.42 0-2.231 1.718-3.047 3.465-3.047.851 0 1.647.115 2.371.358l-.184 1.645"/>
        <path stroke="#238EC2" stroke-width=".5" d="M175.41 35.694a5.098 5.098 0 0 0-2.017-.43c-.681 0-1.562.301-1.562 1.388 0 1.731 4.345 1.002 4.345 4.349 0 2.189-1.718 3.018-3.72 3.018-1.08 0-1.562-.143-2.542-.386l.185-1.802c.682.372 1.463.615 2.244.615.752 0 1.76-.386 1.76-1.288 0-1.902-4.345-1.115-4.345-4.42 0-2.231 1.718-3.047 3.465-3.047.851 0 1.647.115 2.371.358l-.184 1.645z"/>
    </g>
</svg>
