<svg xmlns="http://www.w3.org/2000/svg" xmlns:xlink="http://www.w3.org/1999/xlink" width="89" height="13" viewBox="0 0 89 13">
    <defs>
        <path id="a" d="M.384.884h102.072v20.472H.384z"/>
    </defs>
    <g fill="none" fill-rule="evenodd">
        <g transform="translate(-7 -5)">
            <mask id="b" fill="#fff">
                <use xlink:href="#a"/>
            </mask>
            <path fill="#FFF" d="M59.591 15.521c1.564 0 2.049-1.07 2.377-2.358h-.735c-1.016 0-2.705.171-2.705 1.52 0 .559.532.838 1.063.838zm2.049.109h-.032c-.719.9-1.438 1.412-2.595 1.412-1.453 0-2.485-.807-2.485-2.28 0-2.638 2.97-2.84 4.94-2.84h.735c.062-.217.062-.45.062-.682 0-.807-.875-1.04-1.61-1.04-.923 0-1.814.233-2.643.62l.297-1.659a8.272 8.272 0 0 1 2.737-.48c1.61 0 3.126.589 3.126 2.466 0 1.07-.797 4.204-.984 5.709H61.42l.219-1.226zM7.328 8.86h1.517l.36-1.645 2.25-.73-.515 2.374h1.876l-.328 1.52H10.61l-.766 3.49a3.275 3.275 0 0 0-.093.776c0 .481.328.776.797.776.375 0 .75-.078 1.017-.186l-.36 1.613c-.36.078-.766.186-1.126.186-1.423 0-2.423-.558-2.423-2.094 0-.62.125-1.225.265-1.861l.595-2.7H7l.328-1.52M14.443 5.415h2.094L16.1 7.401h-2.095l.438-1.986zm-.767 3.444h2.095l-1.72 7.989h-2.094l1.72-7.989zM22.098 10.69c-.407-.264-.954-.404-1.532-.404-1.673 0-2.611 1.552-2.611 3.057 0 1.038.344 2.078 1.782 2.078.516 0 1.157-.14 1.704-.403l-.234 1.644c-.641.31-1.329.372-2.017.372-2.08 0-3.424-1.38-3.424-3.443 0-2.793 1.86-4.918 4.753-4.918.782 0 1.532.14 2.095.31l-.516 1.707M24.396 5.214h2.095l-1.392 6.546h.032l2.924-2.9h2.72l-3.862 3.645 2.423 4.343h-2.36l-2.08-4.234h-.031l-.907 4.234H21.91l2.486-11.634M38.327 8.86h1.517l.36-1.645 2.25-.73-.515 2.374h1.876l-.328 1.52H41.61l-.766 3.49a3.288 3.288 0 0 0-.094.776c0 .481.329.776.798.776.375 0 .75-.078 1.016-.186l-.36 1.613c-.36.078-.766.186-1.125.186-1.423 0-2.424-.558-2.424-2.094 0-.62.125-1.225.266-1.861l.594-2.7H38l.328-1.52" mask="url(#b)"/>
            <path fill="#FFF" d="M37.626 11.714c0-2.033-1.313-3.04-3.298-3.04-2.643 0-4.582 2.388-4.582 4.87 0 2.374 1.564 3.49 3.878 3.49.86 0 1.751-.201 2.564-.45l.266-1.644c-.782.357-1.61.574-2.47.574-1.34 0-2.124-.472-2.224-1.728h-.002c-.004-.073-.01-.144-.01-.22v-.045-.024h.001c.01-.547.13-1.086.34-1.584.403-1.017.973-1.72 2.207-1.72.876 0 1.33.481 1.33 1.335 0 .186-.017.356-.048.542h-2.867a4.84 4.84 0 0 0-.222 1.427h4.934c.125-.59.203-1.178.203-1.783M44.719 9.743c.062-.31.125-.636.172-.884h1.954l-.187 1.07h.03c.564-.822 1.486-1.256 2.47-1.256.955 0 1.94.559 2.049 1.52h.031c.532-1.039 1.704-1.52 2.83-1.52 1.204 0 2.236.977 2.236 2.188 0 .713-.188 1.52-.36 2.171l-.844 3.816h-2.095l.844-3.894c.11-.48.266-1.225.266-1.706 0-.59-.453-.962-.985-.962-1.454 0-1.814 1.676-2.08 2.762l-.828 3.8h-2.095l.844-3.894c.11-.48.266-1.225.266-1.706 0-.59-.453-.962-.985-.962-1.423 0-1.814 1.691-2.08 2.762l-.828 3.8h-2.095l1.47-7.105M70.396 10.486c-.225-.122-.804-.293-1.398-.293-.625 0-1.407.171-1.407.807 0 1.008 2.72 1.381 2.72 3.335 0 2.079-1.829 2.7-3.627 2.7-.844 0-1.688-.124-2.454-.481l.453-1.66c.594.325 1.188.62 2.001.62.704 0 1.439-.233 1.439-.884 0-1.287-2.72-1.412-2.72-3.413 0-1.877 1.829-2.544 3.486-2.544.766 0 1.548.14 1.96.246l-.453 1.567M71.734 8.86h1.517l.36-1.645 2.25-.73-.515 2.374h1.876l-.328 1.52h-1.877l-.766 3.49a3.29 3.29 0 0 0-.093.776c0 .481.328.776.797.776.375 0 .75-.078 1.016-.186l-.36 1.613c-.36.078-.765.186-1.125.186-1.423 0-2.423-.558-2.423-2.094 0-.62.125-1.225.265-1.861l.595-2.7h-1.517l.328-1.52M85.938 9.93c.063-.342.125-.698.188-1.07h2.001l-.281 1.504h.031c.375-.869 1.407-1.69 2.376-1.69.266 0 .548.014.798.077l-.438 2.032a2.674 2.674 0 0 0-.797-.124c-1.485 0-2.205 1.318-2.47 2.606l-.75 3.583H84.5l1.438-6.918M84.484 11.714c0-2.033-1.313-3.04-3.299-3.04-2.642 0-4.58 2.388-4.58 4.87 0 2.374 1.563 3.49 3.877 3.49.86 0 1.751-.201 2.564-.45l.266-1.644c-.782.357-1.61.574-2.47.574-1.34 0-2.124-.472-2.225-1.728h-.001c-.004-.073-.01-.144-.01-.22v-.045-.024h.001c.01-.547.13-1.086.34-1.584.403-1.017.972-1.72 2.207-1.72.875 0 1.329.481 1.329 1.335 0 .186-.016.356-.047.542H79.57a4.831 4.831 0 0 0-.222 1.427h4.934a8.56 8.56 0 0 0 .203-1.783" mask="url(#b)"/>
        </g>
        <path fill="#FFF" d="M86.914 5.166h.397c.257 0 .424-.054.424-.324 0-.235-.21-.304-.424-.304h-.397v.628zm-.335-.893h.786c.471 0 .703.192.703.585 0 .333-.208.573-.53.573l.585.918h-.356l-.573-.918h-.28v.918h-.335V4.273zm.675 2.547c.804 0 1.411-.658 1.411-1.506 0-.849-.607-1.507-1.411-1.507-.815 0-1.423.658-1.423 1.507 0 .848.608 1.506 1.423 1.506zm-.006-3.278c.965 0 1.752.794 1.752 1.772 0 .975-.787 1.77-1.752 1.77a1.764 1.764 0 0 1-1.752-1.77c0-.978.788-1.772 1.752-1.772z"/>
        <path d="M0 0h89v17H0z"/>
    </g>
</svg>
