<svg xmlns="http://www.w3.org/2000/svg" xmlns:xlink="http://www.w3.org/1999/xlink" width="196" height="54" viewBox="0 0 196 54">
    <defs>
        <path id="a" d="M17.143 49.632H.024V.297h34.238v49.335H17.143z"/>
    </defs>
    <g fill="none" fill-rule="evenodd">
        <path fill="#FFF" d="M194.048 22.407c0-11.941-6.242-17.077-18.272-17.077L35.433 5.16 34.281 4.02l-.964-.976-1.442 1.44L27.9 8.428c-.777-.677-1.023-1.464-.569-2.442l.757-1.638-8.8-3.977-2.332 5.044C4.993 5.462.4 15.128.4 27.04v.258c0 11.807 3.686 21.614 15.398 21.833 1.756 2.51 4.658 4.158 7.964 4.158a9.71 9.71 0 0 0 7.93-4.096l144.08.477c12.03 0 18.538-4.338 18.538-16.28l-.262-10.984"/>
        <g transform="translate(0 3.97)">
            <mask id="b" fill="#fff">
                <use xlink:href="#a"/>
            </mask>
            <path fill="#FFF" d="M33.35 35.535a9.93 9.93 0 0 0-.817-1.456c-.305-.447-.652-.861-1.024-1.251a10.034 10.034 0 0 0-11.68-2.105c-.375.182-.74.382-1.086.607-.107.069-.209.14-.312.214a9.893 9.893 0 0 0-4.242 8.125c0 5.502 4.493 9.963 10.037 9.963 5.543 0 10.036-4.46 10.036-9.963a9.848 9.848 0 0 0-.912-4.134" mask="url(#b)"/>
            <path fill="#2790C3" d="M15.4 44.421C7.903 43.964 2 37.834 2 30.279V16.517c0-7.586 6.04-13.8 13.582-14.21.203-.012.5-.03.976-.024L17.462.34 16.41.297C7.398.297 0 7.571 0 16.517v13.762c0 8.945 7.398 16.078 15.966 16.078h.822c-.894-.975-1.388-1.936-1.388-1.936" mask="url(#b)"/>
        </g>
        <path fill="#4C4F4F" d="M135.655 25.616c2.31 0 3.021-1.577 3.504-3.474h-1.08c-1.5 0-3.983.25-3.983 2.239 0 .82.785 1.235 1.559 1.235m3.021.159h-.045c-1.059 1.324-2.118 2.077-3.822 2.077-2.146 0-3.663-1.186-3.663-3.358 0-3.89 4.374-4.187 7.28-4.187h1.08c.096-.321.096-.663.096-1.008 0-1.186-1.296-1.528-2.373-1.528-1.366 0-2.674.342-3.897.91l.436-2.442c1.314-.457 2.652-.71 4.033-.71 2.376 0 4.605.87 4.605 3.634 0 1.58-1.174 6.199-1.447 8.419h-2.604l.321-1.807M58.653 15.79h2.228l.531-2.42 3.318-1.077-.757 3.498h2.76l-.481 2.24h-2.77l-1.125 5.147a4.744 4.744 0 0 0-.138 1.146c0 .708.484 1.142 1.179 1.142.548 0 1.104-.116 1.492-.269l-.526 2.37c-.535.118-1.132.274-1.66.274-2.094 0-3.572-.813-3.572-3.083 0-.913.186-1.805.392-2.744l.875-3.983h-2.24l.494-2.24M69.134 10.715h3.082l-.642 2.929h-3.09l.65-2.93zm-1.132 5.075h3.082l-2.527 11.777h-3.09l2.535-11.777zM80.418 18.49c-.604-.386-1.413-.595-2.264-.595-2.465 0-3.85 2.29-3.85 4.506 0 1.532.514 3.066 2.632 3.066.756 0 1.701-.207 2.509-.597l-.344 2.427c-.947.456-1.96.544-2.971.544-3.067 0-5.048-2.031-5.048-5.072 0-4.118 2.74-7.25 7-7.25 1.15 0 2.26.2 3.093.46l-.757 2.512M83.795 10.424h3.09l-2.052 9.647h.05l4.303-4.28h4.01l-5.69 5.375 3.57 6.4h-3.474l-3.07-6.239h-.042l-1.335 6.24h-3.017l3.657-17.143M104.328 15.79h2.232l.531-2.42 3.318-1.077-.763 3.498h2.767l-.479 2.24h-2.772l-1.13 5.147a5.213 5.213 0 0 0-.135 1.146c0 .708.483 1.142 1.175 1.142.549 0 1.102-.116 1.494-.269l-.53 2.37c-.526.118-1.127.274-1.656.274-2.096 0-3.57-.813-3.57-3.083 0-.913.184-1.805.39-2.744l.878-3.983h-2.24l.49-2.24"/>
        <path fill="#4C4F4F" d="M103.292 20c0-2.998-1.93-4.48-4.86-4.48-3.892 0-6.753 3.522-6.753 7.18 0 3.5 2.302 5.14 5.716 5.14 1.267 0 2.579-.294 3.774-.657l.395-2.425c-1.153.528-2.373.844-3.64.844-1.974 0-3.124-.693-3.278-2.546h-.003c0-.108-.016-.214-.016-.327v-.105h.01a6.069 6.069 0 0 1 .5-2.327c.591-1.503 1.43-2.534 3.249-2.534 1.289 0 1.956.706 1.956 1.963 0 .274-.022.526-.066.803h-4.224c-.279.922-.324 1.54-.33 2.095h7.27c.183-.864.3-1.732.3-2.624M113.747 17.095c.086-.459.179-.931.25-1.305h2.88l-.277 1.578h.045c.833-1.204 2.187-1.849 3.642-1.849 1.403 0 2.857.823 3.016 2.244h.046c.78-1.536 2.511-2.244 4.169-2.244 1.776 0 3.298 1.442 3.298 3.227 0 1.047-.273 2.236-.529 3.197l-1.244 5.624h-3.09l1.243-5.737c.16-.712.39-1.805.39-2.514 0-.872-.663-1.42-1.448-1.42-2.14 0-2.672 2.469-3.065 4.073l-1.22 5.598h-3.085l1.237-5.737c.167-.712.396-1.805.396-2.514 0-.872-.67-1.42-1.451-1.42-2.092 0-2.676 2.49-3.065 4.073l-1.219 5.598h-3.09l2.171-10.472M151.58 18.192c-.334-.178-1.186-.43-2.064-.43-.916 0-2.064.252-2.064 1.185 0 1.488 4.008 2.036 4.008 4.916 0 3.064-2.702 3.978-5.357 3.978-1.232 0-2.484-.178-3.609-.705l.666-2.447c.875.483 1.748.913 2.943.913 1.042 0 2.127-.342 2.127-1.299 0-1.903-4.012-2.083-4.012-5.03 0-2.773 2.696-3.754 5.147-3.754 1.123 0 2.277.201 2.885.365l-.67 2.308M153.552 15.79h2.239l.525-2.42 3.317-1.077-.76 3.498h2.767l-.486 2.24h-2.771l-1.121 5.147a4.604 4.604 0 0 0-.142 1.146c0 .708.49 1.142 1.18 1.142.547 0 1.102-.116 1.494-.269l-.526 2.37c-.538.118-1.134.274-1.658.274-2.098 0-3.571-.813-3.571-3.083 0-.913.182-1.805.383-2.744l.877-3.983h-2.231l.484-2.24M174.482 17.368c.097-.503.186-1.026.275-1.577h2.948l-.418 2.223h.055c.548-1.285 2.07-2.495 3.498-2.495.395 0 .806.024 1.17.112l-.643 2.998a3.862 3.862 0 0 0-1.171-.185c-2.188 0-3.25 1.942-3.646 3.844l-1.098 5.279h-3.093l2.123-10.199M172.34 20c0-2.998-1.936-4.48-4.862-4.48-3.895 0-6.75 3.522-6.75 7.18 0 3.5 2.308 5.14 5.712 5.14 1.266 0 2.581-.294 3.78-.657l.385-2.425c-1.144.528-2.365.844-3.633.844-1.982 0-3.129-.693-3.273-2.546h-.006a4.139 4.139 0 0 1-.016-.327c0-.02.003-.04.003-.066v-.04a6.181 6.181 0 0 1 .506-2.326c.586-1.503 1.424-2.534 3.248-2.534 1.292 0 1.958.706 1.958 1.963 0 .274-.03.526-.073.803h-4.216c-.283.922-.33 1.54-.334 2.095h7.272c.186-.864.298-1.732.298-2.624"/>
        <path fill="#1B1A18" d="M6.346 32.302l.104.049-.087-.087-.017.038"/>
        <path fill="#1B1A18" d="M6.346 32.246l.017.018.03-.066-.047.048M19.239 34.83c.023.048.037.098.057.146l.07-.04c-.042-.035-.084-.072-.127-.106"/>
        <path fill="#4C4F4F" d="M11.593 27.037l9.795-21.085 1.513.693a6.497 6.497 0 0 0 3.325 5.866L11.593 27.037zm30.105-8.655a4.63 4.63 0 0 1-3.272-1.345 4.57 4.57 0 0 1 0-6.496l-5.108-5.07-5.174 5.137a3.955 3.955 0 0 1-2.335-5.414l-5.665-2.593-13.75 29.597-.03.066 5.089 5.052a4.643 4.643 0 0 1 5.655-.684 10.115 10.115 0 0 1 2.188-1.657c-.02-.048-.034-.098-.057-.145a7.31 7.31 0 0 0-4.515-1.548 7.453 7.453 0 0 0-2.908.592l-1.64-1.628L33.318 9.274l1.64 1.628a7.224 7.224 0 0 0-.596 2.887c0 .354.034.702.084 1.046.097.675.286 1.325.565 1.94a7.314 7.314 0 0 0 6.687 4.296 7.37 7.37 0 0 0 2.908-.593l1.64 1.629-14.771 14.662a10.063 10.063 0 0 1 1.607 2.207l16.995-16.87-5.107-5.069a4.631 4.631 0 0 1-3.272 1.345z"/>
        <path fill="#2790C3" d="M31.956 40.137a8.34 8.34 0 0 0-.692-1.234 8.448 8.448 0 0 0-.868-1.06A8.5 8.5 0 0 0 20.5 36.06a8.536 8.536 0 0 0-.92.514c-.09.059-.177.12-.264.181a8.384 8.384 0 0 0-3.594 6.884c0 4.662 3.807 8.442 8.504 8.442 4.696 0 8.503-3.78 8.503-8.441 0-1.251-.281-2.435-.773-3.503"/>
        <path fill="#FFF" d="M23.282 48.714L18.844 44.3l1.922-1.916 2.512 2.51 5.318-5.287 1.926 1.911-7.24 7.196"/>
        <path fill="#2790C3" d="M62.49 41.665h-1.869l-3.422-9.55h2.13l1.814 5.525c.18.533.371 1.228.454 1.57.082-.355.261-1.01.44-1.57l1.773-5.525h2.102l-3.422 9.55"/>
        <path stroke="#2790C3" stroke-width=".5" d="M62.49 41.665h-1.869l-3.422-9.55h2.13l1.814 5.525c.18.533.371 1.228.454 1.57.082-.355.261-1.01.44-1.57l1.773-5.525h2.102l-3.422 9.55z"/>
        <path fill="#2790C3" d="M67.19 41.686v-9.59h6.707v1.878h-4.775v1.657h2.774v1.863h-2.774v2.315h4.982v1.877H67.19M80.066 33.96H77.54v2.465h2.526c.896 0 1.38-.41 1.38-1.246 0-.863-.525-1.22-1.38-1.22zm1.145 7.726l-1.725-3.452H77.54v3.452h-1.932v-9.59h4.499c1.821 0 3.326 1 3.326 3.042 0 1.438-.621 2.342-1.85 2.822l1.85 3.726H81.21zM85.047 41.686h1.932v-9.59h-1.932zM90.98 33.974v1.808h2.913v1.863H90.98v4.04h-1.932v-9.588h6.914v1.877H90.98M97.26 41.686h1.932v-9.59H97.26zM101.262 41.686v-9.59h6.706v1.878h-4.775v1.657h2.774v1.863h-2.774v2.315h4.982v1.877h-6.913M112.633 33.96h-1.022v5.863h.953c2.028 0 2.953-1.178 2.953-2.932 0-1.959-.842-2.931-2.884-2.931zm-.07 7.726h-2.883v-9.59h3.022c2.76 0 4.802 1.288 4.802 4.795 0 3.37-2.456 4.795-4.94 4.795zM126.419 33.987v7.699h-1.932v-7.699h-2.774v-1.89h7.48v1.89h-2.774M130.642 41.686h1.932v-9.59h-1.932zM140.163 34.891c-.345-.657-.897-1.04-1.766-1.04-1.45 0-2.277 1.26-2.277 3.04 0 1.726.842 3.041 2.29 3.041.87 0 1.38-.37 1.891-1.219l1.629.96c-.663 1.355-1.822 2.163-3.574 2.163-2.526 0-4.224-1.917-4.224-4.945 0-2.917 1.767-4.945 4.292-4.945 1.822 0 2.926.877 3.533 2.124l-1.794.821M149.437 41.686l-2.622-4.63-1.546 1.808v2.822h-1.931v-9.59h1.931v2.727c0 .356-.013 1.22-.027 1.52.138-.219.497-.657.759-.972l2.705-3.274h2.332l-2.83 3.315 3.548 6.274h-2.319M152.721 41.686v-9.59h6.707v1.878h-4.775v1.657h2.773v1.863h-2.773v2.315h4.982v1.877h-6.914M165.224 33.987v7.699h-1.932v-7.699h-2.774v-1.89h7.48v1.89h-2.774M172.236 41.837c-1.615 0-3.022-.672-3.754-1.74l1.394-1.233c.676.78 1.546 1.096 2.47 1.096 1.146 0 1.684-.315 1.684-1.041 0-.617-.332-.89-2.153-1.302-1.78-.41-3.022-.972-3.022-2.863 0-1.74 1.545-2.808 3.45-2.808 1.504 0 2.608.562 3.519 1.507l-1.394 1.342c-.621-.63-1.31-.986-2.194-.986-1.035 0-1.38.439-1.38.863 0 .603.414.794 1.946 1.151 1.531.356 3.229.877 3.229 2.959 0 1.822-1.16 3.055-3.795 3.055"/>
        <path fill="#4C4F4F" d="M185.87 17.525h.6c.394 0 .648-.087.648-.485 0-.353-.314-.458-.647-.458h-.602v.943zm-.516-1.341h1.2c.726 0 1.07.288 1.07.873 0 .5-.315.86-.802.86l.89 1.367h-.54l-.878-1.366h-.425v1.366h-.515v-3.1zm1.034 3.806c1.222 0 2.15-.976 2.15-2.25 0-1.268-.928-2.252-2.15-2.252-1.243 0-2.168.984-2.168 2.252 0 1.274.925 2.25 2.168 2.25zm-.012-4.891c1.467 0 2.673 1.18 2.673 2.64 0 1.465-1.206 2.647-2.673 2.647a2.655 2.655 0 0 1-2.665-2.646c0-1.46 1.195-2.641 2.665-2.641z"/>
        <path fill="#2790C3" d="M179.59 4.268H34.532l1.975 1.992 143.085-.007C187.5 6.253 194 12.636 194 20.487V34.25c0 7.851-6.5 14.093-14.41 14.093 0 0-146.506-.012-146.509-.006-.337.657-1.012 1.581-1.4 1.973l147.91.018c9.011 0 16.409-7.132 16.409-16.078V20.487c0-8.945-7.398-16.219-16.41-16.219"/>
    </g>
</svg>
