<svg xmlns="http://www.w3.org/2000/svg" xmlns:xlink="http://www.w3.org/1999/xlink" width="206" height="20" viewBox="0 0 206 20">
    <defs>
        <path id="a" d="M0 .04h205.38V20H0"/>
        <path id="c" d="M0 .04h205.38V20H0z"/>
    </defs>
    <g fill="none" fill-rule="evenodd">
        <path fill="#3E3935" d="M76.224 14.602c-.77 0-1.54-.395-1.54-1.184 0-1.906 2.447-2.147 3.92-2.147h1.064c-.475 1.819-1.178 3.33-3.444 3.33m2.108-9.664c-1.36 0-2.675.242-3.966.68l-.43 2.344c1.2-.547 2.492-.876 3.83-.876 1.065 0 2.333.329 2.333 1.468 0 .329 0 .658-.09.964h-1.065c-2.855 0-7.16.285-7.16 4.011 0 2.082 1.495 3.222 3.602 3.222 1.676 0 2.72-.724 3.761-1.995h.046l-.317 1.732h2.56c.272-2.126 1.428-6.553 1.428-8.066 0-2.651-2.198-3.484-4.532-3.484"/>
        <g>
            <mask id="b" fill="#fff">
                <use xlink:href="#a"/>
            </mask>
            <path fill="#3E3935" d="M3.988 13.364c0-.438.068-.833.136-1.096l1.11-4.93h2.72L8.43 5.19H5.71l.748-3.353-3.263 1.03-.521 2.323H.476L0 7.337h2.198l-.862 3.814c-.203.898-.384 1.753-.384 2.63 0 2.17 1.45 2.959 3.512 2.959.521 0 1.11-.155 1.631-.263l.522-2.28c-.385.154-.929.263-1.473.263-.68 0-1.156-.416-1.156-1.096" mask="url(#b)"/>
        </g>
        <path fill="#3E3935" d="M9.676 5.19L7.184 16.476h3.037L12.713 5.19zM13.823.324h-3.036l-.635 2.806h3.037zM15.878 11.524c0-2.126 1.359-4.318 3.784-4.318.839 0 1.631.197 2.221.57l.748-2.41a11.073 11.073 0 0 0-3.037-.438c-4.192 0-6.89 3.001-6.89 6.946 0 2.916 1.95 4.865 4.964 4.865.997 0 1.994-.087 2.923-.525l.34-2.323c-.793.371-1.722.57-2.47.57-2.085 0-2.583-1.47-2.583-2.937M34.458 5.19h-3.942l-4.237 4.098h-.046L28.25.04h-3.037L21.61 16.476h2.968l1.314-5.982h.046l3.014 5.982h3.422l-3.512-6.136zM48.916 13.364c0-.438.069-.833.136-1.096l1.11-4.93h2.72l.476-2.148h-2.72l.749-3.353-3.264 1.03-.52 2.323h-2.198l-.477 2.147h2.198l-.86 3.814c-.204.898-.386 1.753-.386 2.63 0 2.17 1.45 2.959 3.512 2.959.521 0 1.11-.155 1.632-.263l.52-2.28a4.164 4.164 0 0 1-1.471.263c-.68 0-1.157-.416-1.157-1.096"/>
        <path fill="#3E3935" d="M39.608 4.927c-3.83 0-6.64 3.375-6.64 6.882 0 3.353 2.266 4.93 5.62 4.93 1.246 0 2.537-.284 3.716-.635l.385-2.323c-1.133.504-2.334.81-3.58.81-1.943 0-3.077-.667-3.223-2.441h-.003c-.005-.103-.015-.203-.015-.311l.001-.063v-.034h.002a5.914 5.914 0 0 1 .493-2.238c.584-1.437 1.408-2.43 3.198-2.43 1.269 0 1.926.68 1.926 1.886 0 .263-.023.503-.068.767h-4.155c-.27.886-.317 1.48-.322 2.015h7.151c.18-.832.294-1.665.294-2.519 0-2.872-1.903-4.296-4.78-4.296M68.219 4.927c-1.632 0-3.331.68-4.101 2.148h-.046c-.159-1.359-1.586-2.148-2.968-2.148-1.428 0-2.765.614-3.58 1.775h-.046l.272-1.512h-2.832c-.069.35-.16.81-.25 1.25l-2.13 10.036h3.036l1.201-5.369c.385-1.512.952-3.901 3.014-3.901.771 0 1.428.527 1.428 1.358 0 .68-.226 1.732-.386 2.412l-1.223 5.5h3.036l1.201-5.369c.385-1.534.906-3.901 3.015-3.901.77 0 1.427.527 1.427 1.358 0 .68-.227 1.732-.385 2.412l-1.224 5.5h3.036l1.224-5.39c.25-.92.521-2.06.521-3.069 0-1.71-1.495-3.09-3.24-3.09M84.646 8.521c0 2.827 3.943 3.003 3.943 4.822 0 .92-1.065 1.249-2.085 1.249-1.178 0-2.04-.417-2.9-.877l-.657 2.346c1.11.504 2.334.679 3.557.679 2.606 0 5.257-.877 5.257-3.814 0-2.76-3.942-3.288-3.942-4.712 0-.898 1.132-1.14 2.04-1.14.86 0 1.698.242 2.025.414l.657-2.214a12.805 12.805 0 0 0-2.842-.347c-2.402 0-5.053.942-5.053 3.594M97.336 13.364c0-.438.067-.833.135-1.096l1.11-4.93h2.72l.476-2.148h-2.72l.749-3.353-3.263 1.03-.521 2.323h-2.199l-.476 2.147h2.199l-.862 3.814c-.204.898-.385 1.753-.385 2.63 0 2.17 1.45 2.959 3.513 2.959.52 0 1.11-.155 1.631-.263l.521-2.28c-.385.154-.929.263-1.473.263-.68 0-1.155-.416-1.155-1.096M117.22 7.316h-.045l.408-2.126h-2.9c-.091.526-.182 1.03-.273 1.512l-2.084 9.774h3.036l1.088-5.062c.385-1.82 1.428-3.681 3.581-3.681.384 0 .815.065 1.155.175l.634-2.872c-.361-.088-.77-.109-1.155-.109-1.405 0-2.9 1.162-3.444 2.39M107.522 4.927c-3.83 0-6.64 3.375-6.64 6.882 0 3.353 2.266 4.93 5.62 4.93 1.246 0 2.538-.284 3.716-.635l.385-2.323c-1.133.504-2.333.81-3.58.81-1.943 0-3.077-.667-3.223-2.441h-.002c-.006-.103-.016-.203-.016-.311l.002-.063-.001-.034h.002a5.9 5.9 0 0 1 .494-2.238c.583-1.437 1.407-2.43 3.197-2.43 1.269 0 1.926.68 1.926 1.886 0 .263-.023.503-.068.767h-4.154c-.27.886-.318 1.48-.323 2.015h7.151c.182-.832.295-1.665.295-2.519 0-2.872-1.903-4.296-4.781-4.296M126.463 9.372c-1.181 0-2.063-.929-2.063-2.127 0-1.2.882-2.129 2.063-2.129 1.165 0 2.045.93 2.045 2.129 0 1.198-.88 2.127-2.045 2.127m-.008-4.63c-1.399 0-2.54 1.121-2.54 2.503 0 1.378 1.141 2.5 2.54 2.5 1.397 0 2.539-1.122 2.539-2.5 0-1.382-1.142-2.504-2.54-2.504"/>
        <path fill="#3E3935" d="M125.97 7.036V6.15h.575c.311 0 .614.097.614.43 0 .38-.241.457-.614.457h-.575zm1.673-.435c0-.555-.336-.827-1.02-.827h-1.138v2.934h.485V7.41h.406l.83 1.297h.516l-.847-1.297c.466 0 .768-.34.768-.81z"/>
        <path fill="#009CDE" d="M173.036 6.686h-1.254v7.206h1.236c2.802 0 4.04-1.632 4.04-3.603 0-2.115-1.328-3.603-4.022-3.603M196.07 6.435h-1.128V9.66h1.182c1.037 0 1.729-.59 1.729-1.577 0-1.022-.638-1.65-1.783-1.65"/>
        <g>
            <mask id="d" fill="#fff">
                <use xlink:href="#c"/>
            </mask>
            <path fill="#009CDE" d="M198.799 16.402l-3.275-4.715h-.582v4.715h-2.911V4.176h3.947c3.585 0 4.84 1.667 4.84 3.764 0 1.74-1.073 2.922-2.42 3.317l3.803 5.145H198.8zm-9.116 0h-7.768V4.176h7.587V6.65h-4.676v2.276h4.512v2.331h-4.512v2.67h4.857v2.475zm-16.537 0h-4.276V4.176h4.312c4.458 0 6.841 2.76 6.841 6.113 0 3.299-2.51 6.113-6.877 6.113zm-6.823 0h-2.91V4.176h2.91v12.226zm-9.115.394c-2.256 0-3.584-.825-4.22-2.312l2.51-1.291c.346.914.91 1.29 1.747 1.29.873 0 1.419-.555 1.419-1.308 0-.879-.527-1.362-2.11-1.918-2.493-.843-3.348-2.312-3.348-3.926 0-2.205 1.82-3.55 4.04-3.55 1.764 0 2.982.718 3.765 1.99l-2.201 1.434c-.382-.734-.91-1.11-1.602-1.11-.69 0-1.2.447-1.2 1.182 0 .807.727 1.2 2.037 1.65 2.474.896 3.439 2.258 3.439 4.086 0 1.758-1.274 3.783-4.276 3.783zm-6.149-.394h-2.456l-2.93-4.482c-1.382-2.097-1.764-2.904-2.11-3.495h-.072c0 .537.073 1.738.073 2.258v5.719h-2.476V4.176h2.476l3.292 5.073c1.055 1.649 1.383 2.384 1.747 2.994h.055c-.018-.556-.055-1.578-.055-2.098v-5.97h2.456v12.227zm-12.499 0h-2.911V4.176h2.911v12.226zM130.958 20h74.422V.04h-74.422V20z" mask="url(#d)"/>
        </g>
    </g>
</svg>
