<svg xmlns="http://www.w3.org/2000/svg" width="186" height="29" viewBox="0 0 186 29">
    <g fill="none" fill-rule="evenodd">
        <path fill="#FFF" d="M89.486 18.898c1.751 0 2.291-1.206 2.657-2.654h-.819c-1.138 0-3.022.192-3.022 1.712 0 .625.595.942 1.183.942m2.293.122h-.035c-.802 1.01-1.606 1.587-2.9 1.587-1.627 0-2.778-.906-2.778-2.566 0-2.972 3.319-3.2 5.523-3.2h.819c.073-.244.073-.505.073-.77 0-.905-.983-1.168-1.8-1.168-1.037 0-2.029.262-2.957.697l.332-1.867a9.167 9.167 0 0 1 3.058-.543c1.802 0 3.493.665 3.493 2.779 0 1.207-.89 4.734-1.097 6.43h-1.975l.243-1.38M31.077 11.39h1.691l.403-1.85 2.516-.823-.575 2.672h2.094l-.364 1.713h-2.1l-.855 3.933a3.65 3.65 0 0 0-.104.875c0 .541.366.872.893.872.417 0 .838-.087 1.132-.204l-.399 1.81c-.406.09-.858.21-1.26.21-1.587 0-2.709-.621-2.709-2.357 0-.697.141-1.378.297-2.096l.665-3.043h-1.7l.375-1.713M39.029 7.51h2.336L40.88 9.75h-2.343l.492-2.239zm-.859 3.88h2.337l-1.916 8.998h-2.343l1.922-8.999zM47.586 13.452c-.458-.296-1.071-.454-1.717-.454-1.87 0-2.919 1.75-2.919 3.442 0 1.172.388 2.343 1.996 2.343.573 0 1.29-.158 1.902-.456l-.261 1.854c-.718.35-1.487.416-2.253.416-2.326 0-3.829-1.551-3.829-3.875 0-3.147 2.078-5.541 5.31-5.541.873 0 1.714.154 2.346.351l-.575 1.92M50.148 7.288h2.343l-1.555 7.373h.037l3.264-3.271h3.042l-4.315 4.108 2.707 4.89h-2.635l-2.328-4.767h-.032l-1.014 4.768h-2.289zM65.722 11.39h1.694l.404-1.85 2.516-.823-.579 2.672h2.099l-.362 1.713H69.39l-.859 3.933a4 4 0 0 0-.102.875c0 .541.366.872.891.872.418 0 .838-.087 1.133-.204l-.4 1.81c-.4.09-.856.21-1.258.21-1.59 0-2.708-.621-2.708-2.357 0-.697.14-1.378.296-2.096l.665-3.043h-1.697l.37-1.713"/>
        <path fill="#FFF" d="M64.938 14.605c0-2.29-1.464-3.424-3.687-3.424-2.952 0-5.123 2.693-5.123 5.488 0 2.674 1.746 3.927 4.337 3.927.961 0 1.956-.224 2.862-.5l.3-1.855c-.875.404-1.8.646-2.761.646-1.498 0-2.371-.53-2.486-1.947h-.003c0-.082-.012-.163-.012-.25v-.08h.007c.005-.61.142-1.217.38-1.777.448-1.149 1.084-1.938 2.465-1.938.978 0 1.483.54 1.483 1.5 0 .21-.017.402-.05.614h-3.204a5.346 5.346 0 0 0-.25 1.601h5.515c.138-.66.227-1.322.227-2.005M72.868 12.387c.066-.351.138-.711.19-.997h2.185l-.212 1.205h.035c.633-.919 1.66-1.412 2.763-1.412 1.066 0 2.168.628 2.288 1.714h.035c.591-1.173 1.906-1.714 3.162-1.714 1.348 0 2.503 1.102 2.503 2.466 0 .799-.208 1.708-.402 2.442l-.944 4.299h-2.343l.942-4.385c.122-.543.296-1.378.296-1.921 0-.666-.502-1.085-1.099-1.085-1.623 0-2.025 1.887-2.325 3.113l-.924 4.278h-2.34l.939-4.385c.126-.543.3-1.378.3-1.921 0-.666-.51-1.085-1.102-1.085-1.587 0-2.03 1.904-2.325 3.113l-.923 4.278h-2.345l1.647-8.003M101.565 13.226c-.253-.138-.898-.329-1.564-.329-.696 0-1.566.191-1.566.905 0 1.136 3.039 1.556 3.039 3.756 0 2.343-2.048 3.04-4.062 3.04-.935 0-1.884-.134-2.738-.538l.506-1.87c.663.368 1.324.698 2.232.698.79 0 1.612-.26 1.612-.994 0-1.452-3.043-1.59-3.043-3.843 0-2.119 2.046-2.869 3.904-2.869.852 0 1.728.154 2.188.28l-.508 1.764M103.06 11.39h1.698l.4-1.85 2.516-.823-.578 2.672h2.1l-.367 1.713h-2.103l-.852 3.933a3.537 3.537 0 0 0-.105.875c0 .541.37.872.893.872.415 0 .837-.087 1.134-.204l-.399 1.81c-.407.09-.86.21-1.259.21-1.59 0-2.709-.621-2.709-2.357 0-.697.138-1.378.291-2.096l.665-3.043h-1.692l.368-1.713M118.938 12.595c.074-.385.141-.785.209-1.204h2.236l-.318 1.697h.042c.416-.981 1.571-1.905 2.654-1.905.299 0 .612.018.888.085l-.488 2.29a2.93 2.93 0 0 0-.889-.14c-1.66 0-2.465 1.484-2.765 2.937l-.834 4.035h-2.346l1.611-7.795M117.312 14.605c0-2.29-1.467-3.424-3.687-3.424-2.955 0-5.121 2.693-5.121 5.488 0 2.674 1.75 3.927 4.333 3.927.96 0 1.958-.224 2.867-.5l.292-1.855c-.868.404-1.793.646-2.755.646-1.503 0-2.373-.53-2.484-1.947h-.003a2.538 2.538 0 0 1-.012-.25l.001-.05v-.03c.011-.61.146-1.217.384-1.777.444-1.149 1.08-1.938 2.465-1.938.979 0 1.485.54 1.485 1.5 0 .21-.024.402-.055.614h-3.199c-.214.704-.252 1.177-.253 1.601h5.515c.141-.66.227-1.322.227-2.005"/>
        <path fill="#298EC2" d="M126.615 11.293h2.422l.918 6.684h.036l3.59-6.684h2.509l-5.32 9.105h-2.618zM141.573 14.954c.036-.213.052-.407.052-.62 0-.971-.511-1.52-1.501-1.52-1.467 0-2.104.884-2.563 2.14h4.012zm-4.331 1.625c0 1.68.902 2.299 2.528 2.299.972 0 1.909-.248 2.793-.654l-.302 1.875c-.918.282-1.926.511-2.898.511-2.616 0-4.384-1.271-4.384-3.976 0-2.83 2.192-5.552 5.179-5.552 2.246 0 3.731 1.148 3.731 3.465 0 .688-.089 1.36-.229 2.032h-6.418zM145.719 12.514c.07-.388.141-.794.213-1.218h2.262l-.318 1.713h.034c.425-.99 1.592-1.927 2.689-1.927.3 0 .617.018.901.088l-.495 2.316a2.987 2.987 0 0 0-.901-.14c-1.681 0-2.494 1.502-2.793 2.97l-.849 4.082h-2.369l1.626-7.883M153.115 7.37h2.368l-.494 2.263h-2.369l.495-2.263zm-.865 3.923h2.369l-1.946 9.105h-2.369l1.946-9.104zM156.903 13.027h-1.839l.372-1.731h1.837c.479-2.317 1.256-4.367 4.014-4.367.548 0 1.079.106 1.468.228l-.548 1.77a1.66 1.66 0 0 0-.725-.16c-1.309 0-1.609 1.574-1.839 2.529h2.121l-.37 1.732h-2.123l-1.555 7.371h-2.369l1.556-7.372M163.501 7.37h2.368l-.494 2.263h-2.369l.495-2.263zm-.867 3.923h2.37l-1.945 9.105h-2.369l1.945-9.104zM171.72 14.954c.035-.213.052-.407.052-.62 0-.971-.511-1.52-1.501-1.52-1.469 0-2.105.884-2.564 2.14h4.013zm-4.331 1.625c0 1.68.902 2.299 2.528 2.299.972 0 1.909-.248 2.793-.654l-.3 1.875c-.92.282-1.928.511-2.9.511-2.616 0-4.384-1.271-4.384-3.976 0-2.83 2.191-5.552 5.179-5.552 2.246 0 3.731 1.148 3.731 3.465 0 .688-.089 1.36-.229 2.032h-6.418zM177.085 16.616c0 .919.284 2.157 1.45 2.157 1.733 0 2.758-2.017 2.758-3.694 0-1.062-.513-2.159-1.715-2.159-1.697 0-2.493 2.335-2.493 3.696zm8.433-9.476l-2.457 11.244c-.143.777-.282 1.555-.335 2.014h-2.212l.231-1.341h-.036c-.707.988-1.59 1.555-2.97 1.555-2.156 0-3.129-1.805-3.129-3.784 0-2.721 1.485-5.745 4.578-5.745 1.168 0 2.07.441 2.812 1.29l1.149-5.232h2.37z"/>
        <path fill="#424343" d="M0 16.989l.06.027-.05-.05z"/>
        <path fill="#424343" d="M0 16.957l.01.011.017-.038zM7.322 18.436c.013.027.02.055.032.084l.04-.023-.072-.06"/>
        <path fill="#FFF" d="M9.402 2.313a3.724 3.724 0 0 0 1.889 3.356l-8.31 8.31L8.543 1.917l.859.396zm12.531 5.945a2.617 2.617 0 0 1-1.857.769 2.628 2.628 0 0 1-1.858-4.485l-2.9-2.901L12.38 4.58a2.267 2.267 0 0 1-1.326-3.096L7.836 0 .029 16.931l-.018.037 2.89 2.891a2.62 2.62 0 0 1 3.212-.392 5.686 5.686 0 0 1 1.242-.948c-.012-.027-.02-.055-.032-.082a4.133 4.133 0 0 0-3.448-.791 4.224 4.224 0 0 0-.767.243l-.487-.486-.444-.445L13.785 5.349l1.533-1.531.93.93a4.17 4.17 0 0 0-.291 2.25c.056.387.164.759.321 1.11.206.454.489.874.852 1.237a4.137 4.137 0 0 0 2.946 1.221c.576 0 1.137-.117 1.65-.339l.933.932-8.388 8.386c.177.188.342.384.494.594.154.212.294.435.418.669l9.651-9.649-2.901-2.901z"/>
        <path fill="#298EC2" d="M14.498 21.492a4.762 4.762 0 0 0-.39-.699 4.836 4.836 0 0 0-.487-.6 4.756 4.756 0 0 0-5.562-1.009 4.759 4.759 0 0 0-.666.393 4.755 4.755 0 0 0-2.019 3.898 4.779 4.779 0 1 0 9.559 0c0-.708-.16-1.378-.435-1.983"/>
        <path fill="#FFF" d="M9.618 26.378l-2.52-2.526 1.091-1.096 1.428 1.436 3.019-3.024 1.094 1.094zM123.795 18.486h.441c.289 0 .477-.064.477-.36 0-.262-.231-.339-.477-.339h-.441v.699zm-.381-.996h.885c.535 0 .789.215.789.648 0 .372-.234.639-.592.639l.655 1.016h-.398l-.646-1.016h-.312v1.016h-.381V17.49zm.763 2.826c.899 0 1.584-.725 1.584-1.671 0-.94-.685-1.671-1.584-1.671-.916 0-1.6.731-1.6 1.671 0 .946.684 1.671 1.6 1.671zm-.01-3.631c1.081 0 1.969.877 1.969 1.96a1.964 1.964 0 1 1-1.969-1.96z"/>
    </g>
</svg>
