<svg xmlns="http://www.w3.org/2000/svg" width="181" height="42" viewBox="0 0 181 42">
    <path fill="#FFF" fill-rule="evenodd" d="M.669 13.714H3.53l.67-3.272L8.435 9l-.967 4.714H11l-.632 3h-3.53l-1.45 6.935c-.074.39-.185.935-.185 1.559 0 .974.631 1.558 1.523 1.558.706 0 1.413-.156 1.895-.35l-.668 3.194c-.67.156-1.45.39-2.119.39-2.675 0-4.57-1.09-4.57-4.169 0-1.247.222-2.454.483-3.701l1.114-5.377H0l.669-3.039zm13.281 2.353c.118-.612.236-1.225.354-1.723h3.855l-.393 2.106h.078c1.14-1.608 2.95-2.45 4.917-2.45 1.888 0 3.855 1.11 4.09 2.986h.08C27.992 14.956 30.312 14 32.554 14c2.4 0 4.445 1.914 4.445 4.287 0 1.378-.354 2.947-.708 4.249L34.6 30h-4.17l1.693-7.617c.196-.957.511-2.412.511-3.33 0-1.149-.905-1.876-1.967-1.876-2.91 0-3.618 3.292-4.13 5.397L24.885 30h-4.17l1.692-7.617c.236-.957.55-2.412.55-3.33 0-1.149-.904-1.876-1.966-1.876-2.832 0-3.619 3.292-4.13 5.397L15.209 30H11l2.95-13.933zM39 42h.944L50 0h-.985L39 42zm13-28h3.7c1.24 0 2.318.187 3.233.558.915.373 1.674.908 2.279 1.603.604.696 1.053 1.53 1.347 2.5.294.972.441 2.064.441 3.278s-.147 2.32-.441 3.315c-.294.995-.743 1.845-1.347 2.548-.605.704-1.364 1.247-2.279 1.627-.915.38-1.984.571-3.21.571H52V14zm3.601 15.053c1.078 0 2.01-.174 2.793-.522a5.078 5.078 0 0 0 1.936-1.469c.506-.631.882-1.38 1.127-2.245.245-.866.367-1.825.367-2.878 0-1.035-.122-1.982-.367-2.84-.245-.858-.621-1.594-1.127-2.21a5.075 5.075 0 0 0-1.936-1.432c-.784-.34-1.715-.51-2.793-.51h-2.474v14.106h2.474zM68 14h9.75v.972h-8.6v6.045h7.25v.971h-7.25v7.04H78V30H68V14zm13 0h1.22l3.037 9.347c.15.486.295.947.436 1.385.14.437.277.87.41 1.298a83.063 83.063 0 0 0 .871 2.683h.1c.332-.97.627-1.865.884-2.683.257-.817.544-1.711.86-2.683L91.853 14H93l-5.353 16h-1.245L81 14zm17 0h9.75v.972h-8.6v6.045h7.25v.971h-7.25v7.04H108V30H98V14zm15 0h1.131v15.028H123V30h-10V14zm18 16a5.132 5.132 0 0 1-2.415-.574 5.71 5.71 0 0 1-1.902-1.628c-.537-.703-.951-1.55-1.244-2.542-.293-.991-.439-2.097-.439-3.314 0-1.219.146-2.316.439-3.292.293-.976.707-1.811 1.244-2.506a5.53 5.53 0 0 1 1.902-1.594A5.318 5.318 0 0 1 131 14c.878 0 1.683.184 2.415.55a5.533 5.533 0 0 1 1.902 1.594c.537.695.952 1.53 1.244 2.506.293.976.439 2.073.439 3.292 0 1.217-.146 2.323-.439 3.314-.292.992-.707 1.84-1.244 2.542a5.714 5.714 0 0 1-1.902 1.628A5.133 5.133 0 0 1 131 30zm0-.984c.715 0 1.37-.168 1.963-.504.594-.335 1.102-.811 1.525-1.428.422-.617.752-1.36.988-2.226.236-.867.353-1.839.353-2.916 0-1.062-.117-2.023-.353-2.882s-.566-1.588-.988-2.19a4.552 4.552 0 0 0-1.525-1.394 3.996 3.996 0 0 0-1.963-.492c-.716 0-1.37.164-1.963.492a4.544 4.544 0 0 0-1.524 1.394c-.424.602-.753 1.331-.989 2.19-.236.86-.353 1.82-.353 2.882 0 1.077.117 2.05.353 2.916.236.867.565 1.609.989 2.226.422.617.93 1.093 1.524 1.428a3.91 3.91 0 0 0 1.963.504zM141 14h4.337c.884 0 1.675.078 2.374.231.699.154 1.293.409 1.783.765.49.356.863.817 1.12 1.384.257.566.386 1.262.386 2.088 0 1.57-.498 2.74-1.494 3.508-.996.769-2.386 1.153-4.169 1.153h-3.229V30H141V14zm4.048 8.182c1.639 0 2.847-.291 3.627-.874.779-.583 1.168-1.53 1.168-2.84 0-.68-.1-1.242-.3-1.688a2.604 2.604 0 0 0-.892-1.08c-.394-.275-.892-.47-1.494-.583a11.538 11.538 0 0 0-2.109-.17h-2.94v7.235h2.94zM156 14h9.75v.972h-8.6v6.045h7.25v.971h-7.25v7.04H166V30h-10V14zm23.708 16l-4.258-7.356h-3.35V30H171V14h4.498a9.11 9.11 0 0 1 2.129.231c.638.154 1.184.4 1.639.74.454.34.805.777 1.052 1.311.247.535.371 1.182.371 1.943 0 1.279-.363 2.279-1.089 2.998-.725.72-1.71 1.17-2.954 1.348L181 30h-1.292zm-4.497-8.279c1.403 0 2.48-.287 3.23-.862.749-.574 1.124-1.452 1.124-2.634 0-1.198-.375-2.043-1.125-2.537-.75-.494-1.826-.741-3.23-.741h-3.11v6.774h3.11z"/>
</svg>
