<svg xmlns="http://www.w3.org/2000/svg" width="24" height="24" viewBox="0 0 24 24">
    <path fill="#ededed" fill-rule="evenodd" d="M20 6.541a6.557 6.557 0 0 1-1.885.518 3.296 3.296 0 0 0 1.443-1.819 6.569 6.569 0 0 1-2.085.798 3.285 3.285 0 0 0-5.594 2.998 9.315 9.315 0 0 1-6.765-3.434 3.275 3.275 0 0 0-.445 1.652c0 1.14.58 2.146 1.46 2.736a3.266 3.266 0 0 1-1.486-.411v.041a3.288 3.288 0 0 0 2.633 3.223 3.283 3.283 0 0 1-1.483.056 3.286 3.286 0 0 0 3.067 2.283A6.581 6.581 0 0 1 4 16.542a9.283 9.283 0 0 0 5.032 1.478c6.038 0 9.34-5.009 9.34-9.352a9.49 9.49 0 0 0-.01-.425A6.677 6.677 0 0 0 20 6.54"/>
</svg>
