<svg xmlns="http://www.w3.org/2000/svg" width="68" height="68" viewBox="0 0 68 68">
    <path fill="#009CDE" fill-rule="evenodd" d="M45.333 55.4c0-1.544-1.27-2.8-2.833-2.8-1.563 0-2.833 1.256-2.833 2.8 0 1.544 1.27 2.8 2.833 2.8 1.563 0 2.833-1.256 2.833-2.8m2.834 0c0 3.088-2.542 5.6-5.667 5.6s-5.667-2.512-5.667-5.6c0-3.088 2.542-5.6 5.667-5.6s5.667 2.512 5.667 5.6m-28.334 0c0-1.544-1.27-2.8-2.833-2.8-1.563 0-2.833 1.256-2.833 2.8 0 1.544 1.27 2.8 2.833 2.8 1.563 0 2.833-1.256 2.833-2.8m2.834 0c0 3.088-2.542 5.6-5.667 5.6s-5.667-2.512-5.667-5.6c0-3.088 2.542-5.6 5.667-5.6s5.667 2.512 5.667 5.6M66.583 7.8H59.31l-5.318 36.795C53.797 45.965 52.59 47 51.187 47H9.917c-2.343 0-4.25-1.884-4.25-4.2 0-2.316 1.907-4.72 4.25-4.72h34c.782 0 1.416-.109 1.416-.88s-.634-1.4-1.416-1.4H7.083c-2.343 0-4.25-1.884-4.25-4.2 0-2.316 1.907-4.53 4.25-4.53h38.25c.782 0 1.417-.299 1.417-1.07 0-.771-.635-1.19-1.417-1.19H4.25c-2.025 0-3.725-1.618-4.148-3.495A4.151 4.151 0 0 1 0 20.4c0-2.316 1.907-4.364 4.25-4.364h45.333c.784 0 1.417.811 1.417 1.584s-.633 1.4-1.417 1.4H4.25c-.782 0-1.417.609-1.417 1.38 0 .771.635 1.61 1.417 1.61h41.083c2.343 0 4.25 1.674 4.25 3.99 0 2.316-1.907 3.87-4.25 3.87H7.083c-.782 0-1.416.959-1.416 1.73S6.3 33 7.083 33h36.834c2.343 0 4.25 1.884 4.25 4.2 0 2.316-1.907 3.68-4.25 3.68h-34c-.782 0-1.417 1.149-1.417 1.92 0 .771.635 1.4 1.417 1.4h41.27l5.318-36.795C56.708 6.032 57.915 5 59.31 5h7.273C67.367 5 68 5.627 68 6.4c0 .773-.633 1.4-1.417 1.4z"/>
</svg>
