<svg xmlns="http://www.w3.org/2000/svg" width="68" height="68" viewBox="0 0 68 68">
    <path fill="#009CDE" fill-rule="evenodd" d="M38.853 41.844l2.138 2.138-9.623 9.623-6.414-6.414 2.138-2.14 4.276 4.278 7.485-7.485zm10.475-1.797C46.402 33.944 40.18 29.71 32.972 29.71c-7.893 0-14.605 5.073-17.097 12.124-1.822.133-3.561 1.05-5.037 2.128L7.65 41.092 39.73 9.015l3.184 3.188a9.457 9.457 0 0 0-1.839 5.643c.011 2.533 1.014 4.925 2.827 6.738 3.43 3.43 8.616 3.76 12.384.99l3.758 3.757-10.715 10.716zM32.972 62.976c-8.337 0-15.12-6.784-15.12-15.122 0-8.337 6.783-15.12 15.12-15.12 8.338 0 15.122 6.783 15.122 15.12 0 8.338-6.784 15.122-15.122 15.122zM20.454 5.457l3.82 1.422c-.76 3.724.767 7.483 3.761 9.552L9.368 35.098l11.086-29.64zM63.25 28.262l-5.814-5.816a1.513 1.513 0 0 0-2.138 0c-2.597 2.596-6.663 2.593-9.258 0-2.595-2.595-2.595-6.66 0-9.256.59-.591.59-1.547 0-2.138l-5.242-5.244a1.512 1.512 0 0 0-2.138 0l-8.437 8.436c-2.652-1.454-3.843-4.686-2.696-7.768a1.508 1.508 0 0 0-.89-1.945l-6.545-2.435a1.512 1.512 0 0 0-1.943.887L4.095 40.563c-.03.08-.022.16-.038.242-.02.097-.057.187-.057.287 0 .01.006.021.006.032.002.107.036.206.062.31.02.088.026.178.062.26.044.1.116.181.18.27.047.064.076.14.133.197l5.243 5.244c.296.295.683.443 1.07.443.386 0 .773-.226 1.07-.523.891-.892 1.99-1.532 3.172-1.828-.102.774-.171 1.556-.171 2.357C14.827 57.86 22.967 66 32.972 66c10.006 0 18.146-8.14 18.146-18.146 0-1.622-.234-3.187-.635-4.684L63.25 30.4a1.51 1.51 0 0 0 0-2.138z"/>
</svg>
