<svg xmlns="http://www.w3.org/2000/svg" width="68" height="68" viewBox="0 0 68 68">
    <path fill="#009CDE" fill-rule="evenodd" d="M56.667 50.976c0-.784-.635-1.42-1.417-1.42h-8.5c-.782 0-1.417.636-1.417 1.42v5.675c0 .783.635 1.42 1.417 1.42h8.5c.782 0 1.417-.637 1.417-1.42v-5.675zm-8.5-6.645v2.388h5.666v-2.388c0-1.356-1.266-1.852-2.833-1.869-2.14.022-2.833.79-2.833 1.869zM59.5 50.976v5.675a4.259 4.259 0 0 1-4.25 4.257h-8.5a4.259 4.259 0 0 1-4.25-4.257v-5.675c0-1.848 1.189-3.409 2.833-3.996v-2.649c0-1.721 1.09-4.589 5.396-4.705.033-.002.066-.002.101-.002h.265c3.605.09 5.572 1.96 5.572 4.707v2.65c1.644.586 2.833 2.147 2.833 3.995zm1.917-39.473L42.404 4.325a23.426 23.426 0 0 0-16.448-.001L6.592 11.5a1.417 1.417 0 0 0-.925 1.329v16.359c0 12.003 6.274 23.234 16.794 30.043l11.253 7.132a1.42 1.42 0 0 0 1.527-.007l4.17-2.7a1.42 1.42 0 0 0 .421-1.962 1.417 1.417 0 0 0-1.959-.421l-3.41 2.206-10.473-6.637C14.29 50.564 8.5 40.226 8.5 29.189v-15.37l18.445-6.836c4.73-1.772 9.731-1.774 14.463-.002l18.092 6.83V29.19c0 3.784-.363 6.746-1.14 9.327-.227.75.198 1.543.946 1.768a1.41 1.41 0 0 0 1.765-.948c.861-2.854 1.262-6.078 1.262-10.147V12.83c0-.59-.365-1.12-.916-1.327zM41.37 41.065c-.961-.355-2.362-.732-3.476-1.022a1.42 1.42 0 0 1-1.06-1.373v-4.467c0-.62.4-1.17.991-1.354.044-.018 1.842-.722 1.842-4.007 0-.644.429-1.187 1.015-1.36a1.968 1.968 0 0 0 0-.853 1.42 1.42 0 0 1-1.015-1.36c0-.387.129-.703.384-1.339.412-1.023 1.27-2.86.918-4.278-.199-.789-1.834-1.311-4.23-1.311h-.003c-2.397 0-4.032.522-4.228 1.311-.184.734-.912 1.056-1.653.901-.43-.088-.652-.126-.698-.105-.084.173-.183.908.704 3.594.21.636.306.908.306 1.245 0 .644-.43 1.177-1.016 1.35a1.955 1.955 0 0 0 0 .85 1.416 1.416 0 0 1 1.016 1.358c0 3.283 1.797 3.987 1.872 4.016.556.205.961.749.961 1.342v4.467c0 .601-.38 1.138-.945 1.339-.802.282-1.625.566-2.45.849-3.408 1.169-6.93 2.379-8.693 3.602a1.413 1.413 0 0 1-1.972-.359 1.42 1.42 0 0 1 .358-1.974c2.087-1.448 5.633-2.664 9.387-3.953l1.482-.512V35.05c-1.033-.687-2.536-2.2-2.795-5.267-.683-.543-1.101-1.52-1.101-2.727 0-.697.151-1.368.43-1.893.108-.206.236-.389.376-.548-.59-1.8-1.404-4.566.003-6.156.395-.446 1.07-.62 2.184-.65 1.245-1.896 4.114-2.306 6.472-2.306h.002c2.787 0 6.288.688 6.977 3.46.536 2.143-.328 4.395-.906 5.851.474.569.754 1.327.754 2.314 0 1.21-.418 2.148-1.101 2.692-.26 3.066-1.763 4.543-2.795 5.23v2.527c1.183.32 2.017.579 2.686.827a1.416 1.416 0 0 1 .835 1.822 1.41 1.41 0 0 1-1.819.839z"/>
</svg>
