<svg xmlns="http://www.w3.org/2000/svg" width="68" height="68" viewBox="0 0 68 68">
    <path fill="#009CDE" fill-rule="evenodd" d="M59.45 42.508l-2.097 2.111-5.398-5.433a1.404 1.404 0 0 0-1.997 0 1.43 1.43 0 0 0 0 2.01l5.399 5.433-3.257 3.278-5.241-5.277a1.406 1.406 0 0 0-1.997 0 1.427 1.427 0 0 0 0 2.01l5.242 5.277-3.282 3.305-5.398-5.434a1.404 1.404 0 0 0-1.997 0 1.43 1.43 0 0 0 0 2.01l5.398 5.434-2.57 2.586c-.955.964-2.627.964-3.585 0l-2.999-3.02c.973-2.29.544-5.046-1.31-6.912L18.413 33.83a6.178 6.178 0 0 0-4.41-1.84c-.932 0-1.824.225-2.645.615l-4.062-4.373a.767.767 0 0 1 0-1.08L27.002 7.315a.772.772 0 0 1 1.072-.001l3.93 3.956-8.71 8.768c-2.376 2.392-2.376 6.286 0 8.678a6.074 6.074 0 0 0 8.621 0l8.173-8.227a.773.773 0 0 1 1.073 0L59.451 38.9c.478.482.742 1.122.742 1.804 0 .681-.264 1.322-.743 1.804zM28.748 60.401a1.696 1.696 0 0 1-1.212.506c-.457 0-.887-.18-1.21-.505l-2.012-2.025 7.148-7.388.902.907a3.455 3.455 0 0 1 .001 4.856L28.748 60.4zM16.67 50.68l-3.862-3.888 7.148-7.388 3.864 3.89-7.15 7.387zm1.997 2.01l7.148-7.387 3.65 3.673-7.15 7.388-3.648-3.673zM7.97 39.487l3.62-3.645c1.29-1.298 3.537-1.3 4.826 0l1.543 1.554-7.148 7.388-2.84-2.86a1.734 1.734 0 0 1 0-2.437zm31.958-32.17A.756.756 0 0 1 41 7.313l19.707 19.839a.77.77 0 0 1 0 1.08l-3.931 3.955-13.618-13.71a3.544 3.544 0 0 0-2.533-1.056c-.958 0-1.856.374-2.534 1.057l-8.173 8.227a3.259 3.259 0 0 1-4.627 0 3.312 3.312 0 0 1 0-4.658L35 12.275H35v-.001l4.927-4.959zm18.847 26.882l3.93-3.955a3.632 3.632 0 0 0 0-5.1L42.996 5.303a3.572 3.572 0 0 0-5.067 0L34 9.26l-3.93-3.956c-1.35-1.36-3.71-1.363-5.066 0L5.3 25.143a3.595 3.595 0 0 0-1.049 2.55c0 .962.373 1.87 1.017 2.516l3.83 4.122-3.124 3.145a4.593 4.593 0 0 0 0 6.456l18.356 18.48a4.487 4.487 0 0 0 3.207 1.338h.002a4.493 4.493 0 0 0 3.21-1.34l3.248-3.277 2.678 2.695a5.307 5.307 0 0 0 3.79 1.58c1.43 0 2.777-.56 3.788-1.58l17.195-17.31a5.373 5.373 0 0 0 1.57-3.814 5.373 5.373 0 0 0-1.57-3.814l-2.673-2.692z"/>
</svg>
