<svg xmlns="http://www.w3.org/2000/svg" width="94" height="94" viewBox="0 0 94 94">
    <g fill="none" fill-rule="evenodd" stroke="#009CDE" stroke-linejoin="round" stroke-width="2">
        <path stroke-linecap="round" d="M35.217 87.91C15.625 83.462 1 65.942 1 44.998c0-24.304 19.696-44 44-44 24.296 0 44 19.696 44 44H61c-8.836 0-16 7.164-16 16M93 81H45M81 69v16a8 8 0 0 1-8 8h-4"/>
        <path d="M39 69c0 3.312-2.688 6-6 6s-6-2.688-6-6a6 6 0 1 1 12 0z"/>
        <path stroke-linecap="round" d="M33 63v-6c0-13.256 10.744-24 24-24h36"/>
        <path d="M39 69h54v16a8 8 0 0 1-8 8H66.948a24.005 24.005 0 0 1-16.984-7.04l-12.78-12.776"/>
        <path stroke-linecap="round" d="M65 69v16a7.993 7.993 0 0 1-4.396 7.14"/>
    </g>
</svg>
