<?xml version="1.0" encoding="UTF-8" standalone="no"?>
<!-- Created with Inkscape (http://www.inkscape.org/) -->

<svg
   xmlns:dc="http://purl.org/dc/elements/1.1/"
   xmlns:cc="http://creativecommons.org/ns#"
   xmlns:rdf="http://www.w3.org/1999/02/22-rdf-syntax-ns#"
   xmlns:svg="http://www.w3.org/2000/svg"
   xmlns="http://www.w3.org/2000/svg"
   xmlns:sodipodi="http://sodipodi.sourceforge.net/DTD/sodipodi-0.dtd"
   xmlns:inkscape="http://www.inkscape.org/namespaces/inkscape"
   width="1000"
   height="460.24878"
   id="svg2"
   version="1.1"
   inkscape:version="0.48.2 r9819"
   sodipodi:docname="Hub Network 1.svg">
  <defs
     id="defs4" />
  <sodipodi:namedview
     id="base"
     pagecolor="#ffffff"
     bordercolor="#666666"
     borderopacity="1.0"
     inkscape:pageopacity="0.0"
     inkscape:pageshadow="2"
     inkscape:zoom="1.0637352"
     inkscape:cx="328.76869"
     inkscape:cy="-143.13423"
     inkscape:document-units="px"
     inkscape:current-layer="layer1"
     showgrid="false"
     fit-margin-left="0.5"
     fit-margin-bottom="0.5"
     fit-margin-top="0.5"
     fit-margin-right="0.5"
     inkscape:window-width="1083"
     inkscape:window-height="1039"
     inkscape:window-x="834"
     inkscape:window-y="-21"
     inkscape:window-maximized="0">
    <inkscape:grid
       type="xygrid"
       id="grid2996"
       empspacing="5"
       visible="true"
       enabled="true"
       snapvisiblegridlinesonly="true" />
  </sodipodi:namedview>
  <metadata
     id="metadata7">
    <rdf:RDF>
      <cc:Work
         rdf:about="">
        <dc:format>image/svg+xml</dc:format>
        <dc:type
           rdf:resource="http://purl.org/dc/dcmitype/StillImage" />
        <dc:title></dc:title>
      </cc:Work>
    </rdf:RDF>
  </metadata>
  <g
     inkscape:label="Layer 1"
     inkscape:groupmode="layer"
     id="layer1"
     transform="translate(636.13771,-1865.0183)">
    <g
       id="g3944"
       transform="matrix(0.61239941,0,0,0.61239941,-223.1309,1342.8599)">
      <path
         sodipodi:nodetypes="ccccccccccc"
         inkscape:connector-curvature="0"
         id="path3796"
         d="m -442.54004,1603.377 12.99934,-75.4924 c 0.999,-5.5016 0.96765,-8.2372 -7.55887,-9.7736 -142.53746,-29.7193 -236.49156,-151.8526 -236.49156,-291.2332 0,-66.1486 21.34266,-126.1458 67.12526,-187.8358 78.73732,-106.08358 187.64997,-165.90132 293.34141,-185.58206 l -13.19192,75.54057 c -1.05983,5.16564 -0.59976,8.16377 5.19974,9.29211 140.50229,28.05059 238.898826,149.31528 238.898826,291.28138 0,76.7974 -26.112016,137.5896 -82.373646,208.6615 -70.42402,86.3237 -176.20013,147.56 -277.94858,165.1415 z"
         style="fill:#972191;fill-opacity:1;stroke:none" />
      <g
         style="fill:#ffffff;stroke:none"
         transform="matrix(0.38197518,0,0,0.38197518,-783.49953,1363.6463)"
         id="g3834">
        <path
           sodipodi:nodetypes="cccccccccccccccccccccccc"
           transform="translate(629.82039,-708.85721)"
           inkscape:connector-curvature="0"
           id="path3850"
           d="m -122,611.36218 -52,0 c -11.44489,0 -19.93939,-7.25731 -19.93939,-20.49732 0,-5.02834 2.94117,-20.58824 2.94117,-20.58824 L -100.11971,44.223705 C -97.421198,28.713619 -85.117581,16.362183 -69,16.362183 l 52,0 c 15.1997581,0 21.1889483,12.239129 21.1889483,20.670231 0,4.838014 -2.3172905,15.664649 -2.3172905,15.664649 L -21.777464,190.00417 c 0,0 51.498233,-32.91828 112.419175,-32.91828 81.774549,0 131.105169,51.53366 131.105169,125.22282 0,14.58786 -4.09982,37.2549 -4.09982,37.2549 L 170.59719,583.84657 C 167.61217,600.82391 155.05212,611.36218 139,611.36218 l -53,0 c -10.967447,0 -19.42246,-9.78812 -19.42246,-20.05169 0.163809,-6.20759 2.85205,-19.07308 2.85205,-19.07308 l 38.5918,-223.97505 c 0,0 2.51919,-11.74545 2.51919,-20.27499 0,-34.8919 -24.190957,-65.54287 -66.803316,-65.54287 -47.6014882,0 -84.967459,41.1418 -91.707815,78.12565 l -41.961836,243.28653 c -2.935342,15.15959 -14.416243,27.5055 -32.067613,27.5055 z"
           style="fill:#ffffff;stroke:none" />
      </g>
      <path
         sodipodi:nodetypes="cccccccccccccccccccc"
         inkscape:connector-curvature="0"
         id="path3852"
         d="m -402.93429,1331.0363 c -30.68038,0 -49.28303,-19.782 -49.28303,-47.5392 0,-5.1702 1.25179,-12.3734 1.25179,-12.3734 l 18.14049,-102.6822 c 0.90522,-6.4321 6.29994,-10.869 12.13333,-10.869 l 19.70516,0 c 5.38851,0 8.04308,3.8825 8.04308,7.485 0,1.6142 -0.89922,6.278 -0.89922,6.278 l -14.76442,85.1878 c 0,0 -1.20657,6.0265 -1.19387,9.4488 0,12.4657 9.07586,24.8913 25.0839,24.8913 18.04144,0 33.22249,-14.1173 35.83994,-31.5785 l 15.57964,-90.9041 c 1.12616,-6.9672 6.79388,-10.8083 12.30131,-10.8083 l 19.48073,0 c 5.22167,0 8.13073,4.0583 8.13073,7.6788 0,1.8407 -0.83804,5.7888 -0.83804,5.7888 l -26.99016,156.3177 c -18.16339,-4.2648 -25.56536,-17.188 -25.56536,-17.188 0,0 -23.546,20.8665 -56.156,20.8665 z"
         style="fill:#ffffff;stroke:none" />
      <path
         id="path3854"
         d="m -251.96611,1099.1352 c -5.11915,0.2102 -10.69404,3.7066 -12.03222,11.5548 l -24.60159,142.9542 c 0,0 -2.01572,12.0729 -1.83826,16.5562 0,35.6482 25.77104,60.7341 61.71287,60.7341 41.73656,0 78.72264,-34.3639 85.58631,-72.2172 l 5.52673,-32.6947 c 0,0 1.07426,-6.8022 1.07426,-12.3784 0,-33.5117 -24.07127,-60.364 -61.76059,-60.364 -19.59371,0 -34.9746,8.3199 -34.9746,8.3199 l 8.15278,-46.7203 c 0,0 1.20561,-5.8738 1.20561,-8.0931 0,-3.8352 -3.2588,-7.6515 -8.08116,-7.6515 l -19.48074,0 c -0.16403,0 -0.32427,-0.01 -0.4894,0 z m 47.0665,93.6317 c 18.04822,0 28.24229,13.913 28.24229,27.9319 0,2.7683 -1.0743,8.3677 -1.0743,8.3677 l -4.82244,28.2542 c -2.63544,16.8611 -19.11103,34.151 -40.05965,34.151 -15.79214,0 -27.66933,-11.5228 -27.66933,-27.932 0,-3.9483 1.32498,-10.7908 1.32498,-10.7908 l 4.51208,-26.1533 c 2.50947,-15.2376 18.04924,-33.8287 39.54637,-33.8287 z"
         style="fill:#ffffff;stroke:none"
         inkscape:connector-curvature="0" />
    </g>
    <g
       id="g3935"
       transform="matrix(0.61462263,0,0,0.61462263,289.28925,1071.7882)">
      <path
         sodipodi:nodetypes="cccccccccccccccccc"
         inkscape:connector-curvature="0"
         id="path3768"
         d="m -862.14589,1766.0931 c -9.33133,0 -16.33626,-7.7639 -16.33626,-16.0975 0,-2.9103 1.48892,-10.4792 1.48892,-10.4792 l 20.27003,-120.2791 c 14.00111,3.076 19.84907,11.1182 19.84907,11.1182 0,0 14.41991,-11.3569 35.16218,-11.3569 32.08871,0 52.04411,24.3381 52.04411,48.8382 0,4.6573 -1.09135,10.3338 -1.09135,10.3338 l -12.48241,74.0759 c -1.20296,6.6563 -6.16786,13.8125 -15.55184,13.8125 -8.70018,0 -16.30216,-6.7245 -16.30216,-16.1316 0,-3.8316 1.94398,-13.9489 1.94398,-13.9489 l 10.67484,-62.0369 c 0,0 0.81852,-4.2587 0.81852,-6.3776 0,-10.4941 -9.15923,-17.1207 -20.0878,-17.1207 -13.07425,0 -29.69573,12.0182 -32.05863,25.2376 l -12.78555,76.9739 c -1.23777,6.6024 -6.46515,13.4383 -15.55565,13.4383 z"
         style="fill:#971a92;fill-opacity:1;stroke:none" />
      <path
         id="path3770"
         d="m -659.8798,1619.0035 c -37.65832,0 -61.87202,30.2817 -66.75016,57.714 l -4.48821,26.4876 c 0,0 -0.87138,5.4122 -0.87138,10.2895 0,28.3943 20.95977,54.2643 55.00443,54.2643 22.81593,0 42.10408,-10.7433 51.9725,-19.9224 4.84479,-4.4673 6.61608,-7.8633 6.41002,-12.8797 0,-7.3463 -5.42963,-16.1146 -16.00715,-16.1146 -5.03071,0 -8.00017,1.5663 -11.57862,4.8225 -5.61904,5.254 -18.57672,12.2113 -30.72513,12.2113 -15.8105,0 -22.87099,-10.5784 -22.99013,-22.2263 0,-3.7839 0.75201,-6.41 0.75201,-6.41 l 73.33924,0 c 8.96928,0 15.11367,-5.7202 16.42493,-12.8916 l 2.22023,-13.5602 c 0,0 0.51779,-3.3275 0.47747,-7.5201 0,-30.5909 -21.06262,-54.2643 -53.19005,-54.2643 z m -0.10743,31.883 c 14.73425,0 22.59745,10.4222 21.18769,24.2673 l -53.8585,0 c 2.75912,-9.2559 15.84308,-24.2673 32.67081,-24.2673 z"
         style="fill:#971a92;fill-opacity:1;stroke:none"
         inkscape:connector-curvature="0" />
      <path
         id="path3774"
         d="m -572.16874,1622.5964 a 16.082762,16.082762 0 1 0 0,32.1576 l 19.89851,0 -15.8639,92.7244 a 16.082762,16.082762 0 1 0 31.70394,5.4193 l 16.79497,-98.1437 26.55921,0 a 16.082762,16.082762 0 1 0 0,-32.1576 l -79.09273,0 z"
         style="font-size:medium;font-style:normal;font-variant:normal;font-weight:normal;font-stretch:normal;text-indent:0;text-align:start;text-decoration:none;line-height:normal;letter-spacing:normal;word-spacing:normal;text-transform:none;direction:ltr;block-progression:tb;writing-mode:lr-tb;text-anchor:start;baseline-shift:baseline;color:#000000;fill:#971a92;fill-opacity:1;stroke:none;stroke-width:84.19999695;marker:none;visibility:visible;display:inline;overflow:visible;enable-background:accumulate;font-family:Sans;-inkscape-font-specification:Sans"
         inkscape:connector-curvature="0" />
      <path
         inkscape:connector-curvature="0"
         id="path3780"
         d="m -442.50011,1620.0778 a 16.082762,16.082762 0 0 0 -15.98327,19.0749 l 19.94626,113.9241 a 16.082762,16.082762 0 0 0 30.02087,4.7985 l 39.82091,-74.4851 14.18083,70.1044 a 16.082762,16.082762 0 0 0 30.06861,4.1539 l 58.50188,-113.9241 a 16.082762,16.082762 0 1 0 -28.60039,-14.6941 l -37.55293,73.1005 -13.95403,-68.9465 a 16.082762,16.082762 0 0 0 -29.93731,-4.3808 l -38.91372,72.7902 -11.90092,-67.9916 a 16.082762,16.082762 0 0 0 -15.69679,-13.5243 z"
         style="font-size:medium;font-style:normal;font-variant:normal;font-weight:normal;font-stretch:normal;text-indent:0;text-align:start;text-decoration:none;line-height:normal;letter-spacing:normal;word-spacing:normal;text-transform:none;direction:ltr;block-progression:tb;writing-mode:lr-tb;text-anchor:start;baseline-shift:baseline;color:#000000;fill:#971a92;fill-opacity:1;stroke:none;stroke-width:84.19999695;marker:none;visibility:visible;display:inline;overflow:visible;enable-background:accumulate;font-family:Sans;-inkscape-font-specification:Sans" />
      <path
         style="fill:#971a92;fill-opacity:1;stroke:none"
         d="m -107.84728,1766.0931 c -9.33131,0 -16.33624,-7.7639 -16.33624,-16.0975 0,-2.9103 1.4889,-10.4792 1.4889,-10.4792 l 20.27005,-120.2791 c 14.001111,3.076 19.849074,11.1182 19.849074,11.1182 0,0 14.419907,-11.3569 35.162153,-11.3569 14.52197,0 22.116783,4.0141 28.6871,8.9853 5.912441,4.825 10.5989324,9.1826 10.5989324,16.2163 0,10.6794 -9.1310404,15.7076 -14.9636484,15.7076 -11.194279,0 -10.21161,-9.1544 -24.356495,-9.1544 -14.521512,0 -30.52272,15.7398 -33.195744,31.7504 l -11.648409,70.151 c -1.237791,6.6024 -6.465159,13.4383 -15.555673,13.4383 z"
         id="path3784"
         inkscape:connector-curvature="0"
         sodipodi:nodetypes="ccccccccccccc" />
      <path
         id="path3786"
         d="m 28.2127,1617.1294 a 16.082762,16.082762 0 0 0 -15.099975,13.6317 l -19.5523547,116.7293 a 16.082762,16.082762 0 1 0 31.7158577,5.3118 l 4.906013,-29.2569 20.292431,-18.8839 24.649317,53.2975 a 15.092849,15.092849 0 1 0 27.394801,-12.6768 l -28.803296,-62.2381 41.778536,-38.8779 a 15.280535,15.280535 0 0 0 -10.15817,-26.607 15.280535,15.280535 0 0 0 -10.659478,4.2376 l -56.22201,52.3067 6.374249,-38.0304 A 16.082762,16.082762 0 0 0 28.2127,1617.1294 z"
         style="font-size:medium;font-style:normal;font-variant:normal;font-weight:normal;font-stretch:normal;text-indent:0;text-align:start;text-decoration:none;line-height:normal;letter-spacing:normal;word-spacing:normal;text-transform:none;direction:ltr;block-progression:tb;writing-mode:lr-tb;text-anchor:start;baseline-shift:baseline;color:#000000;fill:#971a92;fill-opacity:1;stroke:none;stroke-width:84.19999695;marker:none;visibility:visible;display:inline;overflow:visible;enable-background:accumulate;font-family:Sans;-inkscape-font-specification:Sans"
         inkscape:connector-curvature="0" />
      <path
         id="path3792"
         d="m -188.65373,1618.9557 c -26.02203,0 -56.55388,20.7435 -62.64393,50.5043 l -6.72037,38.663 c 0,0 -1.42047,7.0279 -1.42047,12.0203 0,27.2741 22.41841,48.2005 50.46847,48.2005 32.55815,0 59.97207,-24.9594 64.81643,-51.3876 l 6.56516,-38.5556 c 0,0 1.14593,-5.7318 1.14593,-10.6953 0,-27.9337 -23.71684,-48.7496 -52.21122,-48.7496 z m 0.41779,31.4294 c 10.91196,0 20.45954,7.7793 20.45954,17.2605 0,2.0417 -1.13399,8.3438 -1.13399,8.3438 l -6.23097,35.4162 c -1.39089,9.5686 -15.50901,25.664 -33.61381,25.664 -12.47208,0 -19.07489,-8.6772 -19.07489,-17.0098 0,-2.8867 0.93107,-7.5918 0.93107,-7.5918 l 6.70844,-37.911 c 2.20563,-11.8667 18.309,-24.1719 31.95461,-24.1719 z"
         style="fill:#971a92;fill-opacity:1;stroke:none"
         inkscape:connector-curvature="0" />
    </g>
  </g>
</svg>
