<svg xmlns="http://www.w3.org/2000/svg" width="66" height="27" viewBox="0 0 66 27">
    <path fill="#FFF" fill-rule="evenodd" d="M65.5 19.979L4.451 26.5 0 0l65.5.02v19.959zM63.294 7.23a.641.641 0 0 1-.471.196.637.637 0 0 1-.471-.196.644.644 0 0 1-.194-.472.64.64 0 0 1 .195-.47.64.64 0 0 1 .47-.193c.184 0 .342.065.471.194.13.13.196.286.196.47a.645.645 0 0 1-.196.471zm-.876-.876a.553.553 0 0 0-.167.405c0 .16.055.296.166.408a.55.55 0 0 0 .406.169c.16 0 .294-.057.406-.169a.558.558 0 0 0 .167-.408.553.553 0 0 0-.167-.405.553.553 0 0 0-.406-.168.552.552 0 0 0-.405.168zm.392.037a.56.56 0 0 1 .2.026c.075.032.113.094.113.186 0 .065-.024.113-.071.144a.277.277 0 0 1-.106.035.177.177 0 0 1 .126.072.2.2 0 0 1 .04.113v.053l.001.055.006.038.005.009h-.12L63 7.115 63 7.107l-.003-.023v-.058c0-.084-.023-.14-.07-.167a.303.303 0 0 0-.142-.024h-.102v.288h-.129v-.73h.256zm.14.115a.343.343 0 0 0-.157-.027h-.11v.265h.117a.346.346 0 0 0 .122-.017c.05-.02.075-.057.075-.114 0-.053-.015-.088-.047-.107zm-3.295 8.612l-3.376-5.039v5.039h-2.096v-8.8h1.901l3.327 5.027V6.32h2.096v8.8h-1.852zm-10.504.162c-1.31 0-2.415-.467-3.286-1.386-.83-.88-1.252-1.98-1.252-3.27 0-1.219.463-2.319 1.339-3.18.868-.855 1.948-1.288 3.211-1.288a4.47 4.47 0 0 1 3.148 1.3c.88.866 1.365 2.004 1.365 3.206 0 1.263-.442 2.385-1.277 3.244a4.459 4.459 0 0 1-3.248 1.374zm.024-7.006c-1.348 0-2.404 1.043-2.404 2.375 0 1.362 1.09 2.513 2.38 2.513 1.342 0 2.354-1.08 2.354-2.513 0-1.31-1.045-2.375-2.33-2.375zm-11.254 6.844v-8.8h2.912c.98 0 1.66.079 2.228.48.785.548 1.183 1.377 1.183 2.465 0 1.117-.508 2.065-1.394 2.6-.547.328-1.235.394-2.168.394h-.665v2.86H37.92zm2.12-4.703h.441c1.15 0 1.641-.334 1.641-1.115 0-.745-.452-1.077-1.466-1.077h-.615v2.192zm-6.103 4.84c-2.025 0-3.186-1.247-3.186-3.42V6.32h2.108v5.43c0 1.059.346 1.552 1.09 1.552.785 0 1.167-.508 1.167-1.552V6.32h2.095v5.518c0 2.108-1.254 3.419-3.274 3.419zm-8.355.025c-1.31 0-2.415-.467-3.286-1.386-.83-.88-1.252-1.98-1.252-3.27 0-1.219.463-2.319 1.339-3.18.868-.855 1.948-1.288 3.211-1.288a4.47 4.47 0 0 1 3.148 1.3c.88.866 1.365 2.004 1.365 3.206 0 1.263-.442 2.385-1.277 3.244a4.458 4.458 0 0 1-3.248 1.374zm.024-7.006c-1.348 0-2.404 1.043-2.404 2.375 0 1.362 1.09 2.513 2.38 2.513 1.342 0 2.354-1.08 2.354-2.513 0-1.31-1.045-2.375-2.33-2.375zm-7.444 6.844L16.4 12.152v2.967h-2.096v-8.8h2.911c.982 0 1.661.079 2.228.48.786.548 1.184 1.373 1.184 2.453 0 1.422-.741 2.477-1.984 2.82l-.055.016 2.164 3.03h-2.588zM16.4 10.416h.465c1.15 0 1.641-.334 1.641-1.115 0-.745-.452-1.077-1.466-1.077h-.64v2.192zM9.184 6.185c1.857 0 3.442 1.107 4.16 2.898h-2.325c-.572-.587-1.164-.861-1.86-.861a2.414 2.414 0 0 0-2.407 2.416c0 1.397 1.102 2.578 2.407 2.578.87 0 1.626-.452 2.072-1.24l.068-.12H8.702v-1.612h4.909c.01.17.02.345.02.506 0 .981-.245 1.816-.749 2.552a4.516 4.516 0 0 1-3.723 1.951c-1.281 0-2.372-.466-3.244-1.386-.823-.871-1.24-1.962-1.24-3.242 0-1.207.458-2.298 1.326-3.152.868-.855 1.94-1.288 3.183-1.288z"/>
</svg>
