<svg xmlns="http://www.w3.org/2000/svg" width="32" height="32" viewBox="0 0 32 32">
    <path fill="#55ACEE" fill-rule="evenodd" d="M25.172 9.088a4.944 4.944 0 0 0 2.165-2.727 9.853 9.853 0 0 1-3.127 1.196 4.927 4.927 0 0 0-8.518 3.373c0 .387.044.763.128 1.124A13.973 13.973 0 0 1 5.67 6.902a4.912 4.912 0 0 0-.666 2.48c0 1.71.87 3.219 2.19 4.103a4.9 4.9 0 0 1-2.23-.617v.062a4.932 4.932 0 0 0 3.95 4.834 4.925 4.925 0 0 1-2.224.085 4.93 4.93 0 0 0 4.6 3.424 9.872 9.872 0 0 1-6.115 2.11c-.398 0-.79-.023-1.175-.069a13.924 13.924 0 0 0 7.548 2.215c9.057 0 14.01-7.512 14.01-14.027 0-.214-.005-.427-.015-.638A10.015 10.015 0 0 0 28 8.312a9.835 9.835 0 0 1-2.828.776z"/>
</svg>
